<svg width="428" height="926" viewBox="0 0 428 926" fill="none" xmlns="http://www.w3.org/2000/svg">
<g clip-path="url(#clip0_112_34)">
<rect width="428" height="926" fill="white"/>
<path d="M-54 121C113.6 164.6 152.167 43.1667 150.5 -23L-43 -43.5C-116.5 -6.83333 -221.6 77.4 -54 121Z" fill="#CEEAFF"/>
<path d="M62.6364 232.775C191.834 165.301 64.6449 35.0404 -15.0993 -21.6558L-128.648 82.2848C-118.719 160.562 -66.561 300.248 62.6364 232.775Z" fill="#BBDAF0"/>
<path d="M110.5 447.5C77.7 354.7 8.83334 351.5 -21.5 361.5L-36 694H446.5C459 699.667 479.7 691.7 462.5 614.5C445.3 537.3 360 534 319.5 542C263.5 549.167 143.3 540.3 110.5 447.5Z" fill="url(#paint0_linear_112_34)"/>
<path d="M299.531 647.945L312.6 632.357H338.297L354 647.675L353.683 647.879H353.796V679.741H299.548V647.879L299.531 647.945Z" fill="#2EA5FF"/>
<path d="M307.394 641.168H310.357V630.897H307.394V641.168Z" fill="#2EA5FF"/>
<path d="M312.397 632.153L328.508 651.069V679.741L299.548 679.741V647.471L312.397 632.153Z" fill="#2EA5FF"/>
<path d="M324.785 654.823H318.87V660.88H324.785V654.823Z" fill="#2EA5FF"/>
<path d="M324.785 663.064H318.87V669.12H324.785V663.064Z" fill="#2EA5FF"/>
<path d="M324.785 654.823H318.87V660.88H324.785V654.823Z" fill="#2EA5FF"/>
<path d="M324.785 663.064H318.87V669.12H324.785V663.064Z" fill="#2EA5FF"/>
<path d="M316.605 654.823H310.691V660.88H316.605V654.823Z" fill="#2EA5FF"/>
<path d="M316.605 663.064H310.691V669.12H316.605V663.064Z" fill="#2EA5FF"/>
<path d="M316.605 654.823H310.691V660.88H316.605V654.823Z" fill="#2EA5FF"/>
<path d="M316.605 663.064H310.691V669.12H316.605V663.064Z" fill="#2EA5FF"/>
<path d="M308.426 654.823H302.512V660.88H308.426V654.823Z" fill="#2EA5FF"/>
<path d="M308.426 663.064H302.512V669.12H308.426V663.064Z" fill="#2EA5FF"/>
<path d="M308.426 654.823H302.512V660.88H308.426V654.823Z" fill="#2EA5FF"/>
<path d="M308.426 663.064H302.512V669.12H308.426V663.064Z" fill="#2EA5FF"/>
<path d="M241.913 542H237.504V553.04H241.913V542Z" fill="#2EA5FF"/>
<path d="M241.598 552.094H204.118V679.84H241.598V552.094Z" fill="#2EA5FF"/>
<path d="M256.716 552.094H241.598V679.84H256.716V552.094Z" fill="#2EA5FF"/>
<path d="M216.559 563.133H210.89V568.811H216.559V563.133Z" fill="#2EA5FF"/>
<path d="M225.693 563.133H220.023V568.811H225.693V563.133Z" fill="#2EA5FF"/>
<path d="M234.826 563.133H229.157V568.811H234.826V563.133Z" fill="#2EA5FF"/>
<path d="M216.716 576.066H211.047V581.743H216.716V576.066Z" fill="#2EA5FF"/>
<path d="M225.85 576.066H220.181V581.743H225.85V576.066Z" fill="#2EA5FF"/>
<path d="M234.984 576.066H229.315V581.743H234.984V576.066Z" fill="#2EA5FF"/>
<path d="M216.874 588.998H211.205V594.676H216.874V588.998Z" fill="#2EA5FF"/>
<path d="M226.008 588.998H220.338V594.676H226.008V588.998Z" fill="#2EA5FF"/>
<path d="M235.141 588.998H229.472V594.676H235.141V588.998Z" fill="#2EA5FF"/>
<path d="M217.031 601.93H211.362V607.608H217.031V601.93Z" fill="#2EA5FF"/>
<path d="M226.165 601.93H220.496V607.608H226.165V601.93Z" fill="#2EA5FF"/>
<path d="M235.299 601.93H229.63V607.608H235.299V601.93Z" fill="#2EA5FF"/>
<path d="M217.189 614.863H211.52V620.54H217.189V614.863Z" fill="#2EA5FF"/>
<path d="M226.323 614.863H220.653V620.54H226.323V614.863Z" fill="#2EA5FF"/>
<path d="M235.456 614.863H229.787V620.54H235.456V614.863Z" fill="#2EA5FF"/>
<path d="M217.346 627.795H211.677V633.473H217.346V627.795Z" fill="#2EA5FF"/>
<path d="M226.48 627.795H220.811V633.473H226.48V627.795Z" fill="#2EA5FF"/>
<path d="M235.614 627.795H229.945V633.473H235.614V627.795Z" fill="#2EA5FF"/>
<path d="M217.504 640.727H211.835V646.405H217.504V640.727Z" fill="#2EA5FF"/>
<path d="M226.638 640.727H220.968V646.405H226.638V640.727Z" fill="#2EA5FF"/>
<path d="M235.771 640.727H230.102V646.405H235.771V640.727Z" fill="#2EA5FF"/>
<path d="M217.661 653.66H211.992V659.337H217.661V653.66Z" fill="#2EA5FF"/>
<path d="M226.795 653.66H221.126V659.337H226.795V653.66Z" fill="#2EA5FF"/>
<path d="M226.795 668.8H221.126V679.525H226.795V668.8Z" fill="#2EA5FF"/>
<path d="M235.929 653.66H230.26V659.337H235.929V653.66Z" fill="#2EA5FF"/>
<path d="M244.118 542H241.598V552.724H244.118V542Z" fill="#2EA5FF"/>
<path d="M43.0116 522.974H37.9936V535.537H43.0116V522.974Z" fill="#2EA5FF"/>
<path d="M42.6532 534.46H0V679.84H42.6532V534.46Z" fill="#2EA5FF"/>
<path d="M59.8578 534.46H42.6532V679.84H59.8578V534.46Z" fill="#2EA5FF"/>
<path d="M14.158 547.024H7.70623V553.485H14.158V547.024Z" fill="#2EA5FF"/>
<path d="M24.5525 547.024H18.1007V553.485H24.5525V547.024Z" fill="#2EA5FF"/>
<path d="M34.947 547.024H28.4952V553.485H34.947V547.024Z" fill="#2EA5FF"/>
<path d="M14.3371 561.742H7.8854V568.203H14.3371V561.742Z" fill="#2EA5FF"/>
<path d="M24.7317 561.742H18.28V568.203H24.7317V561.742Z" fill="#2EA5FF"/>
<path d="M35.1261 561.742H28.6744V568.203H35.1261V561.742Z" fill="#2EA5FF"/>
<path d="M14.5164 576.459H8.06464V582.92H14.5164V576.459Z" fill="#2EA5FF"/>
<path d="M24.9109 576.459H18.4591V582.92H24.9109V576.459Z" fill="#2EA5FF"/>
<path d="M35.3054 576.459H28.8536V582.92H35.3054V576.459Z" fill="#2EA5FF"/>
<path d="M14.6956 591.176H8.24382V597.638H14.6956V591.176Z" fill="#2EA5FF"/>
<path d="M25.0901 591.176H18.6384V597.638H25.0901V591.176Z" fill="#2EA5FF"/>
<path d="M35.4846 591.176H29.0329V597.638H35.4846V591.176Z" fill="#2EA5FF"/>
<path d="M14.8748 605.894H8.42306V612.355H14.8748V605.894Z" fill="#2EA5FF"/>
<path d="M25.2694 605.894H18.8176V612.355H25.2694V605.894Z" fill="#2EA5FF"/>
<path d="M35.6638 605.894H29.212V612.355H35.6638V605.894Z" fill="#2EA5FF"/>
<path d="M15.054 620.611H8.60229V627.073H15.054V620.611Z" fill="#2EA5FF"/>
<path d="M25.4486 620.611H18.9968V627.073H25.4486V620.611Z" fill="#2EA5FF"/>
<path d="M35.843 620.611H29.3913V627.073H35.843V620.611Z" fill="#2EA5FF"/>
<path d="M15.2333 635.329H8.78154V641.79H15.2333V635.329Z" fill="#2EA5FF"/>
<path d="M25.6278 635.329H19.176V641.79H25.6278V635.329Z" fill="#2EA5FF"/>
<path d="M36.0222 635.329H29.5704V641.79H36.0222V635.329Z" fill="#2EA5FF"/>
<path d="M15.4124 650.046H8.96071V656.507H15.4124V650.046Z" fill="#2EA5FF"/>
<path d="M25.8069 650.046H19.3552V656.507H25.8069V650.046Z" fill="#2EA5FF"/>
<path d="M25.8069 667.276H19.3552V679.481H25.8069V667.276Z" fill="#2EA5FF"/>
<path d="M36.2015 650.046H29.7497V656.507H36.2015V650.046Z" fill="#2EA5FF"/>
<path d="M45.5206 522.974H42.6531V535.178H45.5206V522.974Z" fill="#2EA5FF"/>
<path d="M286.579 606.778H282.636V612.63H286.579V606.778Z" fill="#2EA5FF"/>
<path d="M286.298 612.128H252.778V679.84H286.298V612.128Z" fill="#2EA5FF"/>
<path d="M299.818 612.128H286.298V679.84H299.818V612.128Z" fill="#2EA5FF"/>
<path d="M264.468 621.729H259.398V626.807H264.468V621.729Z" fill="#2EA5FF"/>
<path d="M272.636 621.729H267.566V626.807H272.636V621.729Z" fill="#2EA5FF"/>
<path d="M280.805 621.729H275.735V626.807H280.805V621.729Z" fill="#2EA5FF"/>
<path d="M264.609 633.295H259.539V638.373H264.609V633.295Z" fill="#2EA5FF"/>
<path d="M272.777 633.295H267.707V638.373H272.777V633.295Z" fill="#2EA5FF"/>
<path d="M280.946 633.295H275.876V638.373H280.946V633.295Z" fill="#2EA5FF"/>
<path d="M264.75 644.861H259.679V649.938H264.75V644.861Z" fill="#2EA5FF"/>
<path d="M272.918 644.861H267.848V649.938H272.918V644.861Z" fill="#2EA5FF"/>
<path d="M281.087 644.861H276.016V649.938H281.087V644.861Z" fill="#2EA5FF"/>
<path d="M264.89 656.426H259.82V661.504H264.89V656.426Z" fill="#2EA5FF"/>
<path d="M273.059 656.426H267.989V661.504H273.059V656.426Z" fill="#2EA5FF"/>
<path d="M273.059 669.967H267.989V679.558H273.059V669.967Z" fill="#2EA5FF"/>
<path d="M281.227 656.426H276.157V661.504H281.227V656.426Z" fill="#2EA5FF"/>
<path d="M288.551 606.778H286.298V612.463H288.551V606.778Z" fill="#2EA5FF"/>
<path d="M111.754 589.702H76.1999L88.8477 474.673H100.878L111.754 589.702ZM77.8749 589.062H110.089L100.295 475.314H89.4214L77.8749 589.062Z" fill="#2EA5FF"/>
<path d="M121.043 594.35H66.178V589.062H121.043V594.35ZM66.8183 593.71H120.403V589.702H66.8183V593.71Z" fill="#2EA5FF"/>
<path d="M104.915 475.314H85.2262V470.025H104.915V475.314ZM85.8666 474.673H104.274V470.666H85.8666V474.673Z" fill="#2EA5FF"/>
<path d="M114.196 602.101L121.749 632.958H124.374L114.196 602.101ZM121.749 632.958H114.311L104.862 594.35H111.641L114.109 601.836L114.196 602.101L114.132 601.836L113.975 601.195L112.143 593.709H104.049L113.812 633.598H121.906L121.749 632.958Z" fill="#2EA5FF"/>
<path d="M73.2087 601.195L72.9846 601.836L62.1943 632.958H65.4731L73.2472 601.195L73.34 600.814L73.2087 601.195ZM75.0786 593.709L73.34 600.814L75.5813 594.35H82.3564L72.9078 632.958H65.4731L65.3161 633.598H73.4104L83.1729 593.709H75.0786Z" fill="#2EA5FF"/>
<path d="M142.577 677.495H128.828L115.761 656.679L116.349 656.426L129.25 676.855H140.965L124.938 638.053L125.527 637.8L142.577 677.495Z" fill="#2EA5FF"/>
<path d="M57.4638 677.495H43.7149L60.7655 637.8L61.354 638.053L45.3273 676.855H57.042L69.9427 656.426L70.5312 656.679L57.4638 677.495Z" fill="#2EA5FF"/>
<path d="M147.771 638.247H41.5713V632.959H147.771V638.247ZM42.2117 637.606H147.131V633.599H42.2117V637.606Z" fill="#2EA5FF"/>
<path d="M122.413 667.402C102.95 659.407 83.213 659.407 63.7492 667.402L63.3632 666.836C81.947 655.594 99.3228 653.668 122.799 666.836L122.413 667.402Z" fill="#2EA5FF"/>
<path d="M120.809 658.836C102.491 650.829 83.9144 650.829 65.5963 658.836L65.3155 658.254C83.8201 650.165 102.585 650.165 121.09 658.254L120.809 658.836Z" fill="#2EA5FF"/>
<path d="M114.132 601.836H72.9846L73.2087 601.195H113.975L114.132 601.836Z" fill="#2EA5FF"/>
<path d="M115.115 605.547H71.8896L72.53 604.224H114.794L115.115 605.547Z" fill="#2EA5FF"/>
<path d="M100.907 470.698H88.8144V459.942H100.907V470.698ZM89.4547 470.057H100.266V461.222L90.0951 460.582L89.4547 470.057Z" fill="#2EA5FF"/>
<path d="M96.5166 460.582H92.8257V442H96.5166V460.582ZM93.4661 459.941H95.8762L94.9429 442.53L93.4661 442.64V459.941Z" fill="#2EA5FF"/>
<path d="M193.066 580.902H187.726V588.826H193.066V580.902Z" fill="#2EA5FF"/>
<path d="M192.684 588.147H147.294V679.84H192.684V588.147Z" fill="#2EA5FF"/>
<path d="M210.993 588.147H192.684V679.84H210.993V588.147Z" fill="#2EA5FF"/>
<path d="M163.123 601.148H156.257V608.024H163.123V601.148Z" fill="#2EA5FF"/>
<path d="M174.185 601.148H167.319V608.024H174.185V601.148Z" fill="#2EA5FF"/>
<path d="M185.246 601.148H178.38V608.024H185.246V601.148Z" fill="#2EA5FF"/>
<path d="M163.314 616.81H156.448V623.686H163.314V616.81Z" fill="#2EA5FF"/>
<path d="M174.375 616.81H167.51V623.686H174.375V616.81Z" fill="#2EA5FF"/>
<path d="M185.437 616.81H178.571V623.686H185.437V616.81Z" fill="#2EA5FF"/>
<path d="M163.505 632.472H156.639V639.348H163.505V632.472Z" fill="#2EA5FF"/>
<path d="M174.566 632.472H167.7V639.348H174.566V632.472Z" fill="#2EA5FF"/>
<path d="M185.628 632.472H178.762V639.348H185.628V632.472Z" fill="#2EA5FF"/>
<path d="M163.695 648.134H156.83V655.01H163.695V648.134Z" fill="#2EA5FF"/>
<path d="M174.757 648.134H167.891V655.01H174.757V648.134Z" fill="#2EA5FF"/>
<path d="M174.757 666.47H167.891V679.458H174.757V666.47Z" fill="#2EA5FF"/>
<path d="M185.818 648.134H178.953V655.01H185.818V648.134Z" fill="#2EA5FF"/>
<path d="M195.736 580.902H192.684V588.6H195.736V580.902Z" fill="#2EA5FF"/>
<path d="M409.062 520.889C423.306 520.888 437.087 515.98 447.956 507.038C458.826 498.096 466.078 485.699 468.424 472.052L468.443 471.94L468.368 471.852C464.518 467.373 461.406 462.342 459.142 456.938C461.836 460.291 465.09 463.182 468.768 465.489L469.145 465.734L469.167 465.294C469.215 464.325 469.24 463.363 469.24 462.434C469.273 452.494 466.682 442.712 461.713 434.022C456.744 425.333 449.565 418.026 440.86 412.8C456.093 397.445 464.585 376.939 464.541 355.614C464.541 310.06 426.381 273 379.476 273C361.593 272.976 344.158 278.435 329.656 288.601C315.154 298.767 304.326 313.12 298.715 329.614L298.639 329.836L298.862 329.924C304.654 332.201 309.984 333.296 315.082 333.242C309.272 334.841 303.241 335.549 297.206 335.342L296.998 335.335L296.948 335.531C295.262 342.099 294.41 348.844 294.412 355.614C294.412 355.858 294.413 356.102 294.415 356.346C294.431 361.61 293.305 366.818 291.111 371.631C288.916 376.444 285.702 380.753 281.678 384.279C275.249 389.96 270.164 396.927 266.772 404.7C263.38 412.473 261.762 420.867 262.028 429.306C262.295 437.744 264.441 446.026 268.317 453.582C272.194 461.138 277.71 467.789 284.486 473.076L284.609 473.172L284.753 473.109C293.65 469.188 299.846 464.811 304.066 459.437C301.212 466.203 297.052 472.377 291.81 477.625L291.581 477.854L291.864 478.014C300.858 483.103 311.055 485.841 321.462 485.961C331.869 486.082 342.131 483.58 351.246 478.701C354.907 490.851 362.516 501.525 372.936 509.128C383.357 516.732 396.029 520.857 409.062 520.889V520.889Z" fill="#FF8700"/>
<path d="M430.501 614C430.764 614 431.018 613.907 431.217 613.74C431.415 613.572 431.545 613.341 431.582 613.088C431.629 612.771 436.178 580.895 432.092 538.531C428.318 499.408 416.199 443.055 379.895 396.774C379.808 396.663 379.7 396.57 379.576 396.5C379.451 396.429 379.314 396.383 379.172 396.365C379.029 396.346 378.885 396.355 378.746 396.39C378.607 396.426 378.477 396.488 378.362 396.572C378.248 396.657 378.152 396.763 378.08 396.883C378.008 397.004 377.961 397.137 377.941 397.276C377.922 397.414 377.931 397.554 377.968 397.689C378.005 397.824 378.069 397.951 378.156 398.062C414.146 443.943 426.168 499.882 429.915 538.73C433.977 580.847 429.463 612.474 429.417 612.788C429.395 612.939 429.407 613.092 429.451 613.238C429.496 613.384 429.572 613.519 429.675 613.634C429.777 613.749 429.904 613.841 430.047 613.904C430.189 613.967 430.344 614 430.501 614L430.501 614Z" fill="#3F3D56"/>
<path d="M412.353 457.971C412.584 457.971 412.809 457.9 412.996 457.768C413.183 457.637 413.322 457.451 413.393 457.237C413.465 457.024 413.465 456.794 413.394 456.581C413.322 456.367 413.183 456.181 412.996 456.05C412.865 455.957 399.584 446.661 379.729 439.599C361.374 433.072 333.463 427.154 304.73 436.037C304.593 436.08 304.466 436.148 304.356 436.237C304.246 436.327 304.156 436.437 304.09 436.561C304.023 436.685 303.983 436.821 303.971 436.96C303.959 437.099 303.975 437.239 304.019 437.372C304.062 437.505 304.132 437.628 304.225 437.735C304.318 437.841 304.431 437.929 304.559 437.993C304.686 438.057 304.826 438.096 304.969 438.108C305.112 438.12 305.256 438.104 305.393 438.061C333.538 429.361 360.943 435.18 378.977 441.594C398.548 448.555 411.582 457.677 411.711 457.768C411.897 457.9 412.122 457.971 412.353 457.971Z" fill="#3F3D56"/>
<path d="M309.07 193C297.62 193.005 292.702 209.109 281.497 211.397C276.493 212.419 271.387 210.384 266.274 210.296C261.161 210.208 255.045 213.815 256.125 218.67L353.602 217.242C343.527 216.226 334.102 211.926 326.864 205.042C321.581 199.938 316.521 192.997 309.07 193Z" fill="#F0F0F0"/>
<path d="M189.864 115.042C184.581 109.938 179.521 102.997 172.07 103C160.62 103.005 155.702 119.109 144.497 121.397C139.493 122.419 134.387 120.384 129.274 120.296C124.161 120.208 118.045 123.815 119.125 128.67L216.602 127.243C206.527 126.226 197.102 121.926 189.864 115.042V115.042Z" fill="#F0F0F0"/>
<path d="M360.07 48C348.62 48.0045 343.702 64.1086 332.497 66.3971C327.493 67.4192 322.387 65.3844 317.274 65.2964C312.161 65.2084 306.045 68.8147 307.125 73.67L404.602 72.2425C394.527 71.2263 385.102 66.9259 377.864 60.0419C372.581 54.9381 367.521 47.997 360.07 48Z" fill="#F0F0F0"/>
<rect width="428" height="232" transform="translate(0 694)" fill="#2EA5FF"/>
</g>
<defs>
<linearGradient id="paint0_linear_112_34" x1="217" y1="687" x2="217" y2="328.5" gradientUnits="userSpaceOnUse">
<stop offset="0.0223693" stop-color="#2EA5FF"/>
<stop offset="0.129648" stop-color="#2EA5FF"/>
<stop offset="1" stop-color="white"/>
</linearGradient>
<clipPath id="clip0_112_34">
<rect width="428" height="926" fill="white"/>
</clipPath>
</defs>
</svg>
