<svg width="381" height="33" viewBox="0 0 381 33" fill="none" xmlns="http://www.w3.org/2000/svg">
<path d="M138.344 6.92969H135.438L135.422 5.41406H137.914C138.341 5.41406 138.698 5.35417 138.984 5.23438C139.271 5.11458 139.487 4.9401 139.633 4.71094C139.784 4.48177 139.859 4.20312 139.859 3.875C139.859 3.51042 139.789 3.21354 139.648 2.98438C139.513 2.75521 139.299 2.58854 139.008 2.48438C138.716 2.375 138.346 2.32031 137.898 2.32031H136.133V12H133.984V0.625H137.898C138.544 0.625 139.12 0.6875 139.625 0.8125C140.135 0.932292 140.568 1.11979 140.922 1.375C141.276 1.63021 141.544 1.95052 141.727 2.33594C141.914 2.72135 142.008 3.17969 142.008 3.71094C142.008 4.17969 141.898 4.61198 141.68 5.00781C141.466 5.39844 141.135 5.71615 140.688 5.96094C140.245 6.20573 139.682 6.34635 139 6.38281L138.344 6.92969ZM138.25 12H134.805L135.703 10.3125H138.25C138.677 10.3125 139.029 10.2422 139.305 10.1016C139.586 9.96094 139.794 9.76823 139.93 9.52344C140.07 9.27344 140.141 8.98698 140.141 8.66406C140.141 8.3099 140.078 8.0026 139.953 7.74219C139.833 7.48177 139.641 7.28125 139.375 7.14062C139.115 7 138.771 6.92969 138.344 6.92969H136.109L136.125 5.41406H138.969L139.461 6C140.117 6.00521 140.651 6.13542 141.062 6.39062C141.479 6.64583 141.786 6.97396 141.984 7.375C142.182 7.77604 142.281 8.20833 142.281 8.67188C142.281 9.40104 142.122 10.013 141.805 10.5078C141.492 11.0026 141.034 11.375 140.43 11.625C139.831 11.875 139.104 12 138.25 12ZM148.641 10.2031V6.30469C148.641 6.01823 148.591 5.77083 148.492 5.5625C148.393 5.35417 148.242 5.19271 148.039 5.07812C147.836 4.96354 147.578 4.90625 147.266 4.90625C146.99 4.90625 146.747 4.95312 146.539 5.04688C146.336 5.14062 146.18 5.27344 146.07 5.44531C145.961 5.61198 145.906 5.80469 145.906 6.02344H143.836C143.836 5.67448 143.919 5.34375 144.086 5.03125C144.253 4.71354 144.49 4.43229 144.797 4.1875C145.109 3.9375 145.482 3.74219 145.914 3.60156C146.352 3.46094 146.841 3.39062 147.383 3.39062C148.023 3.39062 148.594 3.5 149.094 3.71875C149.599 3.93229 149.995 4.25521 150.281 4.6875C150.573 5.11979 150.719 5.66406 150.719 6.32031V10.0078C150.719 10.4297 150.745 10.7917 150.797 11.0938C150.854 11.3906 150.938 11.6484 151.047 11.8672V12H148.945C148.846 11.7865 148.771 11.5156 148.719 11.1875C148.667 10.8542 148.641 10.526 148.641 10.2031ZM148.93 6.85156L148.945 8.07812H147.641C147.318 8.07812 147.034 8.11198 146.789 8.17969C146.544 8.24219 146.344 8.33594 146.188 8.46094C146.031 8.58073 145.914 8.72656 145.836 8.89844C145.758 9.0651 145.719 9.25521 145.719 9.46875C145.719 9.67708 145.766 9.86458 145.859 10.0312C145.958 10.1979 146.099 10.3307 146.281 10.4297C146.469 10.5234 146.688 10.5703 146.938 10.5703C147.302 10.5703 147.62 10.4974 147.891 10.3516C148.161 10.2005 148.372 10.0182 148.523 9.80469C148.674 9.59115 148.755 9.38802 148.766 9.19531L149.359 10.0859C149.286 10.2995 149.177 10.526 149.031 10.7656C148.885 11.0052 148.698 11.2292 148.469 11.4375C148.24 11.6458 147.964 11.8177 147.641 11.9531C147.318 12.0885 146.943 12.1562 146.516 12.1562C145.969 12.1562 145.479 12.0469 145.047 11.8281C144.615 11.6094 144.273 11.3099 144.023 10.9297C143.773 10.5495 143.648 10.1172 143.648 9.63281C143.648 9.1849 143.732 8.78906 143.898 8.44531C144.065 8.10156 144.312 7.8125 144.641 7.57812C144.969 7.33854 145.375 7.15885 145.859 7.03906C146.349 6.91406 146.909 6.85156 147.539 6.85156H148.93ZM154.602 5.35156V12H152.539V3.54688H154.477L154.602 5.35156ZM154.273 7.46875H153.664C153.669 6.85417 153.753 6.29688 153.914 5.79688C154.076 5.29688 154.302 4.86719 154.594 4.50781C154.891 4.14844 155.242 3.8724 155.648 3.67969C156.055 3.48698 156.508 3.39062 157.008 3.39062C157.414 3.39062 157.781 3.44792 158.109 3.5625C158.438 3.67708 158.719 3.85938 158.953 4.10938C159.193 4.35938 159.375 4.6875 159.5 5.09375C159.63 5.49479 159.695 5.98958 159.695 6.57812V12H157.617V6.5625C157.617 6.17708 157.56 5.8724 157.445 5.64844C157.336 5.42448 157.174 5.26562 156.961 5.17188C156.753 5.07812 156.495 5.03125 156.188 5.03125C155.87 5.03125 155.591 5.09635 155.352 5.22656C155.117 5.35156 154.919 5.52604 154.758 5.75C154.602 5.97396 154.482 6.23177 154.398 6.52344C154.315 6.8151 154.273 7.13021 154.273 7.46875ZM166.586 10.2031V0H168.664V12H166.789L166.586 10.2031ZM161.156 7.875V7.71094C161.156 7.0651 161.229 6.47917 161.375 5.95312C161.526 5.42188 161.745 4.96615 162.031 4.58594C162.318 4.20573 162.664 3.91146 163.07 3.70312C163.482 3.49479 163.948 3.39062 164.469 3.39062C164.974 3.39062 165.414 3.49219 165.789 3.69531C166.169 3.89844 166.492 4.1875 166.758 4.5625C167.029 4.9375 167.245 5.38281 167.406 5.89844C167.568 6.40885 167.685 6.97135 167.758 7.58594V8.03125C167.685 8.63021 167.568 9.17969 167.406 9.67969C167.245 10.1797 167.029 10.6172 166.758 10.9922C166.492 11.362 166.169 11.6484 165.789 11.8516C165.409 12.0547 164.964 12.1562 164.453 12.1562C163.938 12.1562 163.474 12.0495 163.062 11.8359C162.656 11.6224 162.31 11.3229 162.023 10.9375C161.742 10.5521 161.526 10.099 161.375 9.57812C161.229 9.05729 161.156 8.48958 161.156 7.875ZM163.227 7.71094V7.875C163.227 8.23958 163.258 8.58073 163.32 8.89844C163.383 9.21615 163.484 9.4974 163.625 9.74219C163.766 9.98177 163.945 10.1693 164.164 10.3047C164.388 10.4401 164.659 10.5078 164.977 10.5078C165.383 10.5078 165.716 10.4193 165.977 10.2422C166.242 10.0599 166.448 9.8125 166.594 9.5C166.74 9.18229 166.833 8.82552 166.875 8.42969V7.20312C166.854 6.89062 166.799 6.60156 166.711 6.33594C166.628 6.07031 166.508 5.84115 166.352 5.64844C166.201 5.45573 166.013 5.30469 165.789 5.19531C165.565 5.08594 165.299 5.03125 164.992 5.03125C164.674 5.03125 164.404 5.10156 164.18 5.24219C163.956 5.3776 163.773 5.56771 163.633 5.8125C163.492 6.05729 163.388 6.34115 163.32 6.66406C163.258 6.98698 163.227 7.33594 163.227 7.71094ZM175.562 9.99219V3.54688H177.641V12H175.688L175.562 9.99219ZM175.828 8.24219L176.469 8.22656C176.469 8.79427 176.406 9.31771 176.281 9.79688C176.156 10.276 175.961 10.6927 175.695 11.0469C175.435 11.3958 175.104 11.6693 174.703 11.8672C174.302 12.0599 173.828 12.1562 173.281 12.1562C172.865 12.1562 172.484 12.099 172.141 11.9844C171.797 11.8646 171.5 11.6797 171.25 11.4297C171.005 11.1745 170.815 10.849 170.68 10.4531C170.544 10.0521 170.477 9.57031 170.477 9.00781V3.54688H172.539V9.02344C172.539 9.30469 172.57 9.53906 172.633 9.72656C172.701 9.91406 172.792 10.0677 172.906 10.1875C173.026 10.3021 173.164 10.3854 173.32 10.4375C173.482 10.4844 173.654 10.5078 173.836 10.5078C174.336 10.5078 174.729 10.4089 175.016 10.2109C175.307 10.0078 175.516 9.73698 175.641 9.39844C175.766 9.05469 175.828 8.66927 175.828 8.24219ZM181.492 5.35156V12H179.43V3.54688H181.367L181.492 5.35156ZM181.164 7.46875H180.555C180.56 6.85417 180.643 6.29688 180.805 5.79688C180.966 5.29688 181.193 4.86719 181.484 4.50781C181.781 4.14844 182.133 3.8724 182.539 3.67969C182.945 3.48698 183.398 3.39062 183.898 3.39062C184.305 3.39062 184.672 3.44792 185 3.5625C185.328 3.67708 185.609 3.85938 185.844 4.10938C186.083 4.35938 186.266 4.6875 186.391 5.09375C186.521 5.49479 186.586 5.98958 186.586 6.57812V12H184.508V6.5625C184.508 6.17708 184.451 5.8724 184.336 5.64844C184.227 5.42448 184.065 5.26562 183.852 5.17188C183.643 5.07812 183.385 5.03125 183.078 5.03125C182.76 5.03125 182.482 5.09635 182.242 5.22656C182.008 5.35156 181.81 5.52604 181.648 5.75C181.492 5.97396 181.372 6.23177 181.289 6.52344C181.206 6.8151 181.164 7.13021 181.164 7.46875ZM193.781 3.54688H195.656V11.7422C195.656 12.5078 195.49 13.1562 195.156 13.6875C194.828 14.224 194.367 14.6302 193.773 14.9062C193.18 15.1875 192.49 15.3281 191.703 15.3281C191.365 15.3281 190.997 15.2812 190.602 15.1875C190.211 15.0938 189.833 14.9453 189.469 14.7422C189.109 14.5443 188.81 14.2865 188.57 13.9688L189.5 12.75C189.781 13.0781 190.099 13.3255 190.453 13.4922C190.807 13.6641 191.19 13.75 191.602 13.75C192.018 13.75 192.372 13.6719 192.664 13.5156C192.961 13.3646 193.188 13.1406 193.344 12.8438C193.505 12.5521 193.586 12.1927 193.586 11.7656V5.47656L193.781 3.54688ZM188.07 7.875V7.71094C188.07 7.0651 188.148 6.47917 188.305 5.95312C188.461 5.42188 188.685 4.96615 188.977 4.58594C189.273 4.20573 189.63 3.91146 190.047 3.70312C190.469 3.49479 190.943 3.39062 191.469 3.39062C192.026 3.39062 192.495 3.49219 192.875 3.69531C193.26 3.89844 193.578 4.1875 193.828 4.5625C194.083 4.9375 194.281 5.38281 194.422 5.89844C194.568 6.40885 194.68 6.97135 194.758 7.58594V8.03125C194.685 8.63021 194.568 9.17969 194.406 9.67969C194.25 10.1797 194.042 10.6172 193.781 10.9922C193.521 11.362 193.198 11.6484 192.812 11.8516C192.427 12.0547 191.974 12.1562 191.453 12.1562C190.932 12.1562 190.464 12.0495 190.047 11.8359C189.63 11.6224 189.273 11.3229 188.977 10.9375C188.685 10.5521 188.461 10.099 188.305 9.57812C188.148 9.05729 188.07 8.48958 188.07 7.875ZM190.133 7.71094V7.875C190.133 8.23958 190.169 8.58073 190.242 8.89844C190.315 9.21615 190.427 9.4974 190.578 9.74219C190.729 9.98177 190.919 10.1693 191.148 10.3047C191.378 10.4401 191.651 10.5078 191.969 10.5078C192.396 10.5078 192.745 10.4193 193.016 10.2422C193.292 10.0599 193.5 9.8125 193.641 9.5C193.786 9.18229 193.88 8.82552 193.922 8.42969V7.20312C193.896 6.89062 193.839 6.60156 193.75 6.33594C193.667 6.07031 193.549 5.84115 193.398 5.64844C193.247 5.45573 193.055 5.30469 192.82 5.19531C192.586 5.08594 192.307 5.03125 191.984 5.03125C191.672 5.03125 191.398 5.10156 191.164 5.24219C190.93 5.3776 190.737 5.56771 190.586 5.8125C190.435 6.05729 190.32 6.34115 190.242 6.66406C190.169 6.98698 190.133 7.33594 190.133 7.71094ZM206.148 0.625V12H204.008V0.625H206.148ZM209.68 0.625V2.32031H200.516V0.625H209.68ZM212.469 5.27344V12H210.406V3.54688H212.359L212.469 5.27344ZM215.039 3.49219L215.008 5.41406C214.893 5.39323 214.763 5.3776 214.617 5.36719C214.477 5.35677 214.344 5.35156 214.219 5.35156C213.901 5.35156 213.622 5.39583 213.383 5.48438C213.143 5.56771 212.943 5.6901 212.781 5.85156C212.625 6.01302 212.505 6.21094 212.422 6.44531C212.339 6.67448 212.292 6.9349 212.281 7.22656L211.836 7.17188C211.836 6.63542 211.891 6.13802 212 5.67969C212.109 5.22135 212.268 4.82031 212.477 4.47656C212.685 4.13281 212.945 3.86719 213.258 3.67969C213.576 3.48698 213.94 3.39062 214.352 3.39062C214.466 3.39062 214.589 3.40104 214.719 3.42188C214.854 3.4375 214.961 3.46094 215.039 3.49219ZM220.562 10.2031V6.30469C220.562 6.01823 220.513 5.77083 220.414 5.5625C220.315 5.35417 220.164 5.19271 219.961 5.07812C219.758 4.96354 219.5 4.90625 219.188 4.90625C218.911 4.90625 218.669 4.95312 218.461 5.04688C218.258 5.14062 218.102 5.27344 217.992 5.44531C217.883 5.61198 217.828 5.80469 217.828 6.02344H215.758C215.758 5.67448 215.841 5.34375 216.008 5.03125C216.174 4.71354 216.411 4.43229 216.719 4.1875C217.031 3.9375 217.404 3.74219 217.836 3.60156C218.273 3.46094 218.763 3.39062 219.305 3.39062C219.945 3.39062 220.516 3.5 221.016 3.71875C221.521 3.93229 221.917 4.25521 222.203 4.6875C222.495 5.11979 222.641 5.66406 222.641 6.32031V10.0078C222.641 10.4297 222.667 10.7917 222.719 11.0938C222.776 11.3906 222.859 11.6484 222.969 11.8672V12H220.867C220.768 11.7865 220.693 11.5156 220.641 11.1875C220.589 10.8542 220.562 10.526 220.562 10.2031ZM220.852 6.85156L220.867 8.07812H219.562C219.24 8.07812 218.956 8.11198 218.711 8.17969C218.466 8.24219 218.266 8.33594 218.109 8.46094C217.953 8.58073 217.836 8.72656 217.758 8.89844C217.68 9.0651 217.641 9.25521 217.641 9.46875C217.641 9.67708 217.688 9.86458 217.781 10.0312C217.88 10.1979 218.021 10.3307 218.203 10.4297C218.391 10.5234 218.609 10.5703 218.859 10.5703C219.224 10.5703 219.542 10.4974 219.812 10.3516C220.083 10.2005 220.294 10.0182 220.445 9.80469C220.596 9.59115 220.677 9.38802 220.688 9.19531L221.281 10.0859C221.208 10.2995 221.099 10.526 220.953 10.7656C220.807 11.0052 220.62 11.2292 220.391 11.4375C220.161 11.6458 219.885 11.8177 219.562 11.9531C219.24 12.0885 218.865 12.1562 218.438 12.1562C217.891 12.1562 217.401 12.0469 216.969 11.8281C216.536 11.6094 216.195 11.3099 215.945 10.9297C215.695 10.5495 215.57 10.1172 215.57 9.63281C215.57 9.1849 215.654 8.78906 215.82 8.44531C215.987 8.10156 216.234 7.8125 216.562 7.57812C216.891 7.33854 217.297 7.15885 217.781 7.03906C218.271 6.91406 218.831 6.85156 219.461 6.85156H220.852ZM227.18 10.4375L229.148 3.54688H231.305L228.406 12H227.094L227.18 10.4375ZM225.742 3.54688L227.734 10.4531L227.805 12H226.484L223.578 3.54688H225.742ZM236.078 12.1562C235.438 12.1562 234.862 12.0521 234.352 11.8438C233.841 11.6354 233.406 11.3464 233.047 10.9766C232.693 10.6016 232.419 10.1667 232.227 9.67188C232.039 9.17188 231.945 8.63542 231.945 8.0625V7.75C231.945 7.09896 232.039 6.50781 232.227 5.97656C232.414 5.4401 232.68 4.97917 233.023 4.59375C233.367 4.20833 233.779 3.91146 234.258 3.70312C234.737 3.49479 235.266 3.39062 235.844 3.39062C236.443 3.39062 236.971 3.49219 237.43 3.69531C237.888 3.89323 238.271 4.17448 238.578 4.53906C238.885 4.90365 239.117 5.34115 239.273 5.85156C239.43 6.35677 239.508 6.91667 239.508 7.53125V8.39844H232.883V6.97656H237.477V6.82031C237.466 6.49219 237.404 6.19271 237.289 5.92188C237.174 5.64583 236.997 5.42708 236.758 5.26562C236.518 5.09896 236.208 5.01562 235.828 5.01562C235.521 5.01562 235.253 5.08333 235.023 5.21875C234.799 5.34896 234.612 5.53646 234.461 5.78125C234.315 6.02083 234.206 6.30729 234.133 6.64062C234.06 6.97396 234.023 7.34375 234.023 7.75V8.0625C234.023 8.41667 234.07 8.74479 234.164 9.04688C234.263 9.34896 234.406 9.61198 234.594 9.83594C234.786 10.0547 235.016 10.2266 235.281 10.3516C235.552 10.4714 235.859 10.5312 236.203 10.5312C236.635 10.5312 237.026 10.4479 237.375 10.2812C237.729 10.1094 238.036 9.85677 238.297 9.52344L239.336 10.6016C239.159 10.862 238.919 11.112 238.617 11.3516C238.32 11.5911 237.961 11.7865 237.539 11.9375C237.117 12.0833 236.63 12.1562 236.078 12.1562ZM243.078 0V12H241.008V0H243.078ZM97.1133 13.9375H103.312C104.609 13.9375 105.723 14.1328 106.652 14.5234C107.582 14.9141 108.297 15.4922 108.797 16.2578C109.297 17.0234 109.547 17.9648 109.547 19.082C109.547 19.9648 109.391 20.7305 109.078 21.3789C108.766 22.0273 108.324 22.5703 107.754 23.0078C107.191 23.4453 106.527 23.7891 105.762 24.0391L104.754 24.5547H99.2812L99.2578 22.0117H103.348C104.012 22.0117 104.562 21.8945 105 21.6602C105.438 21.4258 105.766 21.1016 105.984 20.6875C106.211 20.2734 106.324 19.8008 106.324 19.2695C106.324 18.6992 106.215 18.207 105.996 17.793C105.777 17.3711 105.445 17.0469 105 16.8203C104.555 16.5938 103.992 16.4805 103.312 16.4805H100.336V31H97.1133V13.9375ZM106.746 31L102.797 23.3594L106.207 23.3477L110.203 30.8359V31H106.746ZM117.832 31.2344C116.871 31.2344 116.008 31.0781 115.242 30.7656C114.477 30.4531 113.824 30.0195 113.285 29.4648C112.754 28.9023 112.344 28.25 112.055 27.5078C111.773 26.7578 111.633 25.9531 111.633 25.0938V24.625C111.633 23.6484 111.773 22.7617 112.055 21.9648C112.336 21.1602 112.734 20.4688 113.25 19.8906C113.766 19.3125 114.383 18.8672 115.102 18.5547C115.82 18.2422 116.613 18.0859 117.48 18.0859C118.379 18.0859 119.172 18.2383 119.859 18.543C120.547 18.8398 121.121 19.2617 121.582 19.8086C122.043 20.3555 122.391 21.0117 122.625 21.7773C122.859 22.5352 122.977 23.375 122.977 24.2969V25.5977H113.039V23.4648H119.93V23.2305C119.914 22.7383 119.82 22.2891 119.648 21.8828C119.477 21.4688 119.211 21.1406 118.852 20.8984C118.492 20.6484 118.027 20.5234 117.457 20.5234C116.996 20.5234 116.594 20.625 116.25 20.8281C115.914 21.0234 115.633 21.3047 115.406 21.6719C115.188 22.0312 115.023 22.4609 114.914 22.9609C114.805 23.4609 114.75 24.0156 114.75 24.625V25.0938C114.75 25.625 114.82 26.1172 114.961 26.5703C115.109 27.0234 115.324 27.418 115.605 27.7539C115.895 28.082 116.238 28.3398 116.637 28.5273C117.043 28.707 117.504 28.7969 118.02 28.7969C118.668 28.7969 119.254 28.6719 119.777 28.4219C120.309 28.1641 120.77 27.7852 121.16 27.2852L122.719 28.9023C122.453 29.293 122.094 29.668 121.641 30.0273C121.195 30.3867 120.656 30.6797 120.023 30.9062C119.391 31.125 118.66 31.2344 117.832 31.2344ZM130.254 28.7969C130.691 28.7969 131.082 28.7109 131.426 28.5391C131.77 28.3672 132.043 28.125 132.246 27.8125C132.457 27.5 132.57 27.1367 132.586 26.7227H135.504C135.488 27.582 135.246 28.3516 134.777 29.0312C134.309 29.7109 133.684 30.25 132.902 30.6484C132.129 31.0391 131.262 31.2344 130.301 31.2344C129.324 31.2344 128.473 31.0703 127.746 30.7422C127.02 30.4141 126.414 29.957 125.93 29.3711C125.453 28.7852 125.094 28.1055 124.852 27.332C124.617 26.5586 124.5 25.7305 124.5 24.8477V24.4727C124.5 23.5898 124.617 22.7617 124.852 21.9883C125.094 21.2148 125.453 20.5352 125.93 19.9492C126.414 19.3633 127.02 18.9062 127.746 18.5781C128.473 18.25 129.32 18.0859 130.289 18.0859C131.312 18.0859 132.211 18.2852 132.984 18.6836C133.766 19.082 134.375 19.6445 134.812 20.3711C135.258 21.0977 135.488 21.9531 135.504 22.9375H132.586C132.57 22.4844 132.469 22.0781 132.281 21.7188C132.094 21.3594 131.828 21.0703 131.484 20.8516C131.141 20.6328 130.723 20.5234 130.23 20.5234C129.707 20.5234 129.27 20.6328 128.918 20.8516C128.574 21.0703 128.305 21.3711 128.109 21.7539C127.922 22.1289 127.789 22.5508 127.711 23.0195C127.641 23.4805 127.605 23.9648 127.605 24.4727V24.8477C127.605 25.3633 127.641 25.8555 127.711 26.3242C127.789 26.793 127.922 27.2148 128.109 27.5898C128.305 27.957 128.574 28.25 128.918 28.4688C129.27 28.6875 129.715 28.7969 130.254 28.7969ZM137.016 24.7891V24.543C137.016 23.6133 137.148 22.7578 137.414 21.9766C137.68 21.1875 138.066 20.5039 138.574 19.9258C139.082 19.3477 139.703 18.8984 140.438 18.5781C141.172 18.25 142.008 18.0859 142.945 18.0859C143.898 18.0859 144.742 18.25 145.477 18.5781C146.219 18.8984 146.844 19.3477 147.352 19.9258C147.859 20.5039 148.246 21.1875 148.512 21.9766C148.777 22.7578 148.91 23.6133 148.91 24.543V24.7891C148.91 25.7109 148.777 26.5664 148.512 27.3555C148.246 28.1367 147.859 28.8203 147.352 29.4062C146.844 29.9844 146.223 30.4336 145.488 30.7539C144.754 31.0742 143.914 31.2344 142.969 31.2344C142.031 31.2344 141.191 31.0742 140.449 30.7539C139.707 30.4336 139.082 29.9844 138.574 29.4062C138.066 28.8203 137.68 28.1367 137.414 27.3555C137.148 26.5664 137.016 25.7109 137.016 24.7891ZM140.109 24.543V24.7891C140.109 25.3438 140.164 25.8633 140.273 26.3477C140.383 26.832 140.551 27.2578 140.777 27.625C141.004 27.9922 141.297 28.2812 141.656 28.4922C142.023 28.6953 142.461 28.7969 142.969 28.7969C143.469 28.7969 143.898 28.6953 144.258 28.4922C144.617 28.2812 144.91 27.9922 145.137 27.625C145.371 27.2578 145.543 26.832 145.652 26.3477C145.762 25.8633 145.816 25.3438 145.816 24.7891V24.543C145.816 23.9961 145.762 23.4844 145.652 23.0078C145.543 22.5234 145.371 22.0977 145.137 21.7305C144.91 21.3555 144.613 21.0625 144.246 20.8516C143.887 20.6328 143.453 20.5234 142.945 20.5234C142.445 20.5234 142.016 20.6328 141.656 20.8516C141.297 21.0625 141.004 21.3555 140.777 21.7305C140.551 22.0977 140.383 22.5234 140.273 23.0078C140.164 23.4844 140.109 23.9961 140.109 24.543ZM154.242 20.9219V31H151.148V18.3203H154.066L154.242 20.9219ZM153.785 24.2031H152.836C152.836 23.3203 152.941 22.5078 153.152 21.7656C153.371 21.0234 153.691 20.3789 154.113 19.832C154.535 19.2773 155.055 18.8477 155.672 18.543C156.297 18.2383 157.02 18.0859 157.84 18.0859C158.41 18.0859 158.934 18.1719 159.41 18.3438C159.887 18.5078 160.297 18.7695 160.641 19.1289C160.992 19.4805 161.262 19.9414 161.449 20.5117C161.637 21.0742 161.73 21.75 161.73 22.5391V31H158.637V22.8555C158.637 22.2617 158.551 21.7969 158.379 21.4609C158.215 21.125 157.977 20.8906 157.664 20.7578C157.352 20.6172 156.977 20.5469 156.539 20.5469C156.055 20.5469 155.637 20.6445 155.285 20.8398C154.941 21.0273 154.656 21.2891 154.43 21.625C154.211 21.9609 154.047 22.3477 153.938 22.7852C153.836 23.2227 153.785 23.6953 153.785 24.2031ZM161.496 23.6289L160.219 23.8633C160.227 23.0664 160.336 22.3203 160.547 21.625C160.758 20.9219 161.066 20.3086 161.473 19.7852C161.887 19.2539 162.398 18.8398 163.008 18.543C163.625 18.2383 164.336 18.0859 165.141 18.0859C165.766 18.0859 166.328 18.1758 166.828 18.3555C167.336 18.5273 167.77 18.8047 168.129 19.1875C168.488 19.5625 168.762 20.0508 168.949 20.6523C169.145 21.2539 169.242 21.9883 169.242 22.8555V31H166.125V22.8438C166.125 22.2266 166.039 21.7539 165.867 21.4258C165.703 21.0977 165.465 20.8711 165.152 20.7461C164.84 20.6133 164.473 20.5469 164.051 20.5469C163.621 20.5469 163.246 20.6289 162.926 20.793C162.613 20.9492 162.348 21.168 162.129 21.4492C161.918 21.7305 161.758 22.0586 161.648 22.4336C161.547 22.8008 161.496 23.1992 161.496 23.6289ZM175.102 20.9219V31H172.008V18.3203H174.926L175.102 20.9219ZM174.645 24.2031H173.695C173.695 23.3203 173.801 22.5078 174.012 21.7656C174.23 21.0234 174.551 20.3789 174.973 19.832C175.395 19.2773 175.914 18.8477 176.531 18.543C177.156 18.2383 177.879 18.0859 178.699 18.0859C179.27 18.0859 179.793 18.1719 180.27 18.3438C180.746 18.5078 181.156 18.7695 181.5 19.1289C181.852 19.4805 182.121 19.9414 182.309 20.5117C182.496 21.0742 182.59 21.75 182.59 22.5391V31H179.496V22.8555C179.496 22.2617 179.41 21.7969 179.238 21.4609C179.074 21.125 178.836 20.8906 178.523 20.7578C178.211 20.6172 177.836 20.5469 177.398 20.5469C176.914 20.5469 176.496 20.6445 176.145 20.8398C175.801 21.0273 175.516 21.2891 175.289 21.625C175.07 21.9609 174.906 22.3477 174.797 22.7852C174.695 23.2227 174.645 23.6953 174.645 24.2031ZM182.355 23.6289L181.078 23.8633C181.086 23.0664 181.195 22.3203 181.406 21.625C181.617 20.9219 181.926 20.3086 182.332 19.7852C182.746 19.2539 183.258 18.8398 183.867 18.543C184.484 18.2383 185.195 18.0859 186 18.0859C186.625 18.0859 187.188 18.1758 187.688 18.3555C188.195 18.5273 188.629 18.8047 188.988 19.1875C189.348 19.5625 189.621 20.0508 189.809 20.6523C190.004 21.2539 190.102 21.9883 190.102 22.8555V31H186.984V22.8438C186.984 22.2266 186.898 21.7539 186.727 21.4258C186.562 21.0977 186.324 20.8711 186.012 20.7461C185.699 20.6133 185.332 20.5469 184.91 20.5469C184.48 20.5469 184.105 20.6289 183.785 20.793C183.473 20.9492 183.207 21.168 182.988 21.4492C182.777 21.7305 182.617 22.0586 182.508 22.4336C182.406 22.8008 182.355 23.1992 182.355 23.6289ZM198.574 31.2344C197.613 31.2344 196.75 31.0781 195.984 30.7656C195.219 30.4531 194.566 30.0195 194.027 29.4648C193.496 28.9023 193.086 28.25 192.797 27.5078C192.516 26.7578 192.375 25.9531 192.375 25.0938V24.625C192.375 23.6484 192.516 22.7617 192.797 21.9648C193.078 21.1602 193.477 20.4688 193.992 19.8906C194.508 19.3125 195.125 18.8672 195.844 18.5547C196.562 18.2422 197.355 18.0859 198.223 18.0859C199.121 18.0859 199.914 18.2383 200.602 18.543C201.289 18.8398 201.863 19.2617 202.324 19.8086C202.785 20.3555 203.133 21.0117 203.367 21.7773C203.602 22.5352 203.719 23.375 203.719 24.2969V25.5977H193.781V23.4648H200.672V23.2305C200.656 22.7383 200.562 22.2891 200.391 21.8828C200.219 21.4688 199.953 21.1406 199.594 20.8984C199.234 20.6484 198.77 20.5234 198.199 20.5234C197.738 20.5234 197.336 20.625 196.992 20.8281C196.656 21.0234 196.375 21.3047 196.148 21.6719C195.93 22.0312 195.766 22.4609 195.656 22.9609C195.547 23.4609 195.492 24.0156 195.492 24.625V25.0938C195.492 25.625 195.562 26.1172 195.703 26.5703C195.852 27.0234 196.066 27.418 196.348 27.7539C196.637 28.082 196.98 28.3398 197.379 28.5273C197.785 28.707 198.246 28.7969 198.762 28.7969C199.41 28.7969 199.996 28.6719 200.52 28.4219C201.051 28.1641 201.512 27.7852 201.902 27.2852L203.461 28.9023C203.195 29.293 202.836 29.668 202.383 30.0273C201.938 30.3867 201.398 30.6797 200.766 30.9062C200.133 31.125 199.402 31.2344 198.574 31.2344ZM208.828 21.0273V31H205.734V18.3203H208.641L208.828 21.0273ZM208.336 24.2031H207.422C207.43 23.2812 207.555 22.4453 207.797 21.6953C208.039 20.9453 208.379 20.3008 208.816 19.7617C209.262 19.2227 209.789 18.8086 210.398 18.5195C211.008 18.2305 211.688 18.0859 212.438 18.0859C213.047 18.0859 213.598 18.1719 214.09 18.3438C214.582 18.5156 215.004 18.7891 215.355 19.1641C215.715 19.5391 215.988 20.0312 216.176 20.6406C216.371 21.2422 216.469 21.9844 216.469 22.8672V31H213.352V22.8438C213.352 22.2656 213.266 21.8086 213.094 21.4727C212.93 21.1367 212.688 20.8984 212.367 20.7578C212.055 20.6172 211.668 20.5469 211.207 20.5469C210.73 20.5469 210.312 20.6445 209.953 20.8398C209.602 21.0273 209.305 21.2891 209.062 21.625C208.828 21.9609 208.648 22.3477 208.523 22.7852C208.398 23.2227 208.336 23.6953 208.336 24.2031ZM226.805 28.3047V13H229.922V31H227.109L226.805 28.3047ZM218.66 24.8125V24.5664C218.66 23.5977 218.77 22.7188 218.988 21.9297C219.215 21.1328 219.543 20.4492 219.973 19.8789C220.402 19.3086 220.922 18.8672 221.531 18.5547C222.148 18.2422 222.848 18.0859 223.629 18.0859C224.387 18.0859 225.047 18.2383 225.609 18.543C226.18 18.8477 226.664 19.2812 227.062 19.8438C227.469 20.4062 227.793 21.0742 228.035 21.8477C228.277 22.6133 228.453 23.457 228.562 24.3789V25.0469C228.453 25.9453 228.277 26.7695 228.035 27.5195C227.793 28.2695 227.469 28.9258 227.062 29.4883C226.664 30.043 226.18 30.4727 225.609 30.7773C225.039 31.082 224.371 31.2344 223.605 31.2344C222.832 31.2344 222.137 31.0742 221.52 30.7539C220.91 30.4336 220.391 29.9844 219.961 29.4062C219.539 28.8281 219.215 28.1484 218.988 27.3672C218.77 26.5859 218.66 25.7344 218.66 24.8125ZM221.766 24.5664V24.8125C221.766 25.3594 221.812 25.8711 221.906 26.3477C222 26.8242 222.152 27.2461 222.363 27.6133C222.574 27.9727 222.844 28.2539 223.172 28.457C223.508 28.6602 223.914 28.7617 224.391 28.7617C225 28.7617 225.5 28.6289 225.891 28.3633C226.289 28.0898 226.598 27.7188 226.816 27.25C227.035 26.7734 227.176 26.2383 227.238 25.6445V23.8047C227.207 23.3359 227.125 22.9023 226.992 22.5039C226.867 22.1055 226.688 21.7617 226.453 21.4727C226.227 21.1836 225.945 20.957 225.609 20.793C225.273 20.6289 224.875 20.5469 224.414 20.5469C223.938 20.5469 223.531 20.6523 223.195 20.8633C222.859 21.0664 222.586 21.3516 222.375 21.7188C222.164 22.0859 222.008 22.5117 221.906 22.9961C221.812 23.4805 221.766 24.0039 221.766 24.5664ZM239.707 28.3047V22.457C239.707 22.0273 239.633 21.6562 239.484 21.3438C239.336 21.0312 239.109 20.7891 238.805 20.6172C238.5 20.4453 238.113 20.3594 237.645 20.3594C237.23 20.3594 236.867 20.4297 236.555 20.5703C236.25 20.7109 236.016 20.9102 235.852 21.168C235.688 21.418 235.605 21.707 235.605 22.0352H232.5C232.5 21.5117 232.625 21.0156 232.875 20.5469C233.125 20.0703 233.48 19.6484 233.941 19.2812C234.41 18.9062 234.969 18.6133 235.617 18.4023C236.273 18.1914 237.008 18.0859 237.82 18.0859C238.781 18.0859 239.637 18.25 240.387 18.5781C241.145 18.8984 241.738 19.3828 242.168 20.0312C242.605 20.6797 242.824 21.4961 242.824 22.4805V28.0117C242.824 28.6445 242.863 29.1875 242.941 29.6406C243.027 30.0859 243.152 30.4727 243.316 30.8008V31H240.164C240.016 30.6797 239.902 30.2734 239.824 29.7812C239.746 29.2812 239.707 28.7891 239.707 28.3047ZM240.141 23.2773L240.164 25.1172H238.207C237.723 25.1172 237.297 25.168 236.93 25.2695C236.562 25.3633 236.262 25.5039 236.027 25.6914C235.793 25.8711 235.617 26.0898 235.5 26.3477C235.383 26.5977 235.324 26.8828 235.324 27.2031C235.324 27.5156 235.395 27.7969 235.535 28.0469C235.684 28.2969 235.895 28.4961 236.168 28.6445C236.449 28.7852 236.777 28.8555 237.152 28.8555C237.699 28.8555 238.176 28.7461 238.582 28.5273C238.988 28.3008 239.305 28.0273 239.531 27.707C239.758 27.3867 239.879 27.082 239.895 26.793L240.785 28.1289C240.676 28.4492 240.512 28.7891 240.293 29.1484C240.074 29.5078 239.793 29.8438 239.449 30.1562C239.105 30.4688 238.691 30.7266 238.207 30.9297C237.723 31.1328 237.16 31.2344 236.52 31.2344C235.699 31.2344 234.965 31.0703 234.316 30.7422C233.668 30.4141 233.156 29.9648 232.781 29.3945C232.406 28.8242 232.219 28.1758 232.219 27.4492C232.219 26.7773 232.344 26.1836 232.594 25.668C232.844 25.1523 233.215 24.7188 233.707 24.3672C234.199 24.0078 234.809 23.7383 235.535 23.5586C236.27 23.3711 237.109 23.2773 238.055 23.2773H240.141ZM251.613 18.3203V20.5469H244.348V18.3203H251.613ZM246.293 15.2031H249.398V27.3438C249.398 27.7188 249.449 28.0078 249.551 28.2109C249.652 28.4141 249.805 28.5508 250.008 28.6211C250.211 28.6914 250.453 28.7266 250.734 28.7266C250.938 28.7266 251.125 28.7148 251.297 28.6914C251.469 28.668 251.613 28.6445 251.73 28.6211L251.742 30.9414C251.484 31.0273 251.191 31.0977 250.863 31.1523C250.543 31.207 250.18 31.2344 249.773 31.2344C249.078 31.2344 248.469 31.1172 247.945 30.8828C247.422 30.6406 247.016 30.2539 246.727 29.7227C246.438 29.1836 246.293 28.4727 246.293 27.5898V15.2031ZM256.957 18.3203V31H253.852V18.3203H256.957ZM253.641 15.0039C253.641 14.543 253.797 14.1602 254.109 13.8555C254.43 13.5508 254.859 13.3984 255.398 13.3984C255.938 13.3984 256.363 13.5508 256.676 13.8555C256.996 14.1602 257.156 14.543 257.156 15.0039C257.156 15.457 256.996 15.8359 256.676 16.1406C256.363 16.4453 255.938 16.5977 255.398 16.5977C254.859 16.5977 254.43 16.4453 254.109 16.1406C253.797 15.8359 253.641 15.457 253.641 15.0039ZM259.359 24.7891V24.543C259.359 23.6133 259.492 22.7578 259.758 21.9766C260.023 21.1875 260.41 20.5039 260.918 19.9258C261.426 19.3477 262.047 18.8984 262.781 18.5781C263.516 18.25 264.352 18.0859 265.289 18.0859C266.242 18.0859 267.086 18.25 267.82 18.5781C268.562 18.8984 269.188 19.3477 269.695 19.9258C270.203 20.5039 270.59 21.1875 270.855 21.9766C271.121 22.7578 271.254 23.6133 271.254 24.543V24.7891C271.254 25.7109 271.121 26.5664 270.855 27.3555C270.59 28.1367 270.203 28.8203 269.695 29.4062C269.188 29.9844 268.566 30.4336 267.832 30.7539C267.098 31.0742 266.258 31.2344 265.312 31.2344C264.375 31.2344 263.535 31.0742 262.793 30.7539C262.051 30.4336 261.426 29.9844 260.918 29.4062C260.41 28.8203 260.023 28.1367 259.758 27.3555C259.492 26.5664 259.359 25.7109 259.359 24.7891ZM262.453 24.543V24.7891C262.453 25.3438 262.508 25.8633 262.617 26.3477C262.727 26.832 262.895 27.2578 263.121 27.625C263.348 27.9922 263.641 28.2812 264 28.4922C264.367 28.6953 264.805 28.7969 265.312 28.7969C265.812 28.7969 266.242 28.6953 266.602 28.4922C266.961 28.2812 267.254 27.9922 267.48 27.625C267.715 27.2578 267.887 26.832 267.996 26.3477C268.105 25.8633 268.16 25.3438 268.16 24.7891V24.543C268.16 23.9961 268.105 23.4844 267.996 23.0078C267.887 22.5234 267.715 22.0977 267.48 21.7305C267.254 21.3555 266.957 21.0625 266.59 20.8516C266.23 20.6328 265.797 20.5234 265.289 20.5234C264.789 20.5234 264.359 20.6328 264 20.8516C263.641 21.0625 263.348 21.3555 263.121 21.7305C262.895 22.0977 262.727 22.5234 262.617 23.0078C262.508 23.4844 262.453 23.9961 262.453 24.543ZM276.539 21.0273V31H273.445V18.3203H276.352L276.539 21.0273ZM276.047 24.2031H275.133C275.141 23.2812 275.266 22.4453 275.508 21.6953C275.75 20.9453 276.09 20.3008 276.527 19.7617C276.973 19.2227 277.5 18.8086 278.109 18.5195C278.719 18.2305 279.398 18.0859 280.148 18.0859C280.758 18.0859 281.309 18.1719 281.801 18.3438C282.293 18.5156 282.715 18.7891 283.066 19.1641C283.426 19.5391 283.699 20.0312 283.887 20.6406C284.082 21.2422 284.18 21.9844 284.18 22.8672V31H281.062V22.8438C281.062 22.2656 280.977 21.8086 280.805 21.4727C280.641 21.1367 280.398 20.8984 280.078 20.7578C279.766 20.6172 279.379 20.5469 278.918 20.5469C278.441 20.5469 278.023 20.6445 277.664 20.8398C277.312 21.0273 277.016 21.2891 276.773 21.625C276.539 21.9609 276.359 22.3477 276.234 22.7852C276.109 23.2227 276.047 23.6953 276.047 24.2031Z" fill="white"/>
<line x1="3.26224e-10" y1="15.5" x2="78" y2="15.5" stroke="white"/>
<line x1="303" y1="15.5" x2="381" y2="15.5" stroke="white"/>
</svg>
