<svg width="286" height="49" viewBox="0 0 286 49" fill="none" xmlns="http://www.w3.org/2000/svg">
<path d="M65.7617 10.3945H61.4023L61.3789 8.12109H65.1172C65.7578 8.12109 66.293 8.03125 66.7227 7.85156C67.1523 7.67188 67.4766 7.41016 67.6953 7.06641C67.9219 6.72266 68.0352 6.30469 68.0352 5.8125C68.0352 5.26562 67.9297 4.82031 67.7188 4.47656C67.5156 4.13281 67.1953 3.88281 66.7578 3.72656C66.3203 3.5625 65.7656 3.48047 65.0938 3.48047H62.4453V18H59.2227V0.9375H65.0938C66.0625 0.9375 66.9258 1.03125 67.6836 1.21875C68.4492 1.39844 69.0977 1.67969 69.6289 2.0625C70.1602 2.44531 70.5625 2.92578 70.8359 3.50391C71.1172 4.08203 71.2578 4.76953 71.2578 5.56641C71.2578 6.26953 71.0938 6.91797 70.7656 7.51172C70.4453 8.09766 69.9492 8.57422 69.2773 8.94141C68.6133 9.30859 67.7695 9.51953 66.7461 9.57422L65.7617 10.3945ZM65.6211 18H60.4531L61.8008 15.4688H65.6211C66.2617 15.4688 66.7891 15.3633 67.2031 15.1523C67.625 14.9414 67.9375 14.6523 68.1406 14.2852C68.3516 13.9102 68.457 13.4805 68.457 12.9961C68.457 12.4648 68.3633 12.0039 68.1758 11.6133C67.9961 11.2227 67.707 10.9219 67.3086 10.7109C66.918 10.5 66.4023 10.3945 65.7617 10.3945H62.4102L62.4336 8.12109H66.6992L67.4375 9C68.4219 9.00781 69.2227 9.20312 69.8398 9.58594C70.4648 9.96875 70.9258 10.4609 71.2227 11.0625C71.5195 11.6641 71.668 12.3125 71.668 13.0078C71.668 14.1016 71.4297 15.0195 70.9531 15.7617C70.4844 16.5039 69.7969 17.0625 68.8906 17.4375C67.9922 17.8125 66.9023 18 65.6211 18ZM81.207 15.3047V9.45703C81.207 9.02734 81.1328 8.65625 80.9844 8.34375C80.8359 8.03125 80.6094 7.78906 80.3047 7.61719C80 7.44531 79.6133 7.35938 79.1445 7.35938C78.7305 7.35938 78.3672 7.42969 78.0547 7.57031C77.75 7.71094 77.5156 7.91016 77.3516 8.16797C77.1875 8.41797 77.1055 8.70703 77.1055 9.03516H74C74 8.51172 74.125 8.01562 74.375 7.54688C74.625 7.07031 74.9805 6.64844 75.4414 6.28125C75.9102 5.90625 76.4688 5.61328 77.1172 5.40234C77.7734 5.19141 78.5078 5.08594 79.3203 5.08594C80.2812 5.08594 81.1367 5.25 81.8867 5.57812C82.6445 5.89844 83.2383 6.38281 83.668 7.03125C84.1055 7.67969 84.3242 8.49609 84.3242 9.48047V15.0117C84.3242 15.6445 84.3633 16.1875 84.4414 16.6406C84.5273 17.0859 84.6523 17.4727 84.8164 17.8008V18H81.6641C81.5156 17.6797 81.4023 17.2734 81.3242 16.7812C81.2461 16.2812 81.207 15.7891 81.207 15.3047ZM81.6406 10.2773L81.6641 12.1172H79.707C79.2227 12.1172 78.7969 12.168 78.4297 12.2695C78.0625 12.3633 77.7617 12.5039 77.5273 12.6914C77.293 12.8711 77.1172 13.0898 77 13.3477C76.8828 13.5977 76.8242 13.8828 76.8242 14.2031C76.8242 14.5156 76.8945 14.7969 77.0352 15.0469C77.1836 15.2969 77.3945 15.4961 77.668 15.6445C77.9492 15.7852 78.2773 15.8555 78.6523 15.8555C79.1992 15.8555 79.6758 15.7461 80.082 15.5273C80.4883 15.3008 80.8047 15.0273 81.0312 14.707C81.2578 14.3867 81.3789 14.082 81.3945 13.793L82.2852 15.1289C82.1758 15.4492 82.0117 15.7891 81.793 16.1484C81.5742 16.5078 81.293 16.8438 80.9492 17.1562C80.6055 17.4688 80.1914 17.7266 79.707 17.9297C79.2227 18.1328 78.6602 18.2344 78.0195 18.2344C77.1992 18.2344 76.4648 18.0703 75.8164 17.7422C75.168 17.4141 74.6562 16.9648 74.2812 16.3945C73.9062 15.8242 73.7188 15.1758 73.7188 14.4492C73.7188 13.7773 73.8438 13.1836 74.0938 12.668C74.3438 12.1523 74.7148 11.7188 75.207 11.3672C75.6992 11.0078 76.3086 10.7383 77.0352 10.5586C77.7695 10.3711 78.6094 10.2773 79.5547 10.2773H81.6406ZM90.1484 8.02734V18H87.0547V5.32031H89.9609L90.1484 8.02734ZM89.6562 11.2031H88.7422C88.75 10.2812 88.875 9.44531 89.1172 8.69531C89.3594 7.94531 89.6992 7.30078 90.1367 6.76172C90.582 6.22266 91.1094 5.80859 91.7188 5.51953C92.3281 5.23047 93.0078 5.08594 93.7578 5.08594C94.3672 5.08594 94.918 5.17187 95.4102 5.34375C95.9023 5.51563 96.3242 5.78906 96.6758 6.16406C97.0352 6.53906 97.3086 7.03125 97.4961 7.64062C97.6914 8.24219 97.7891 8.98438 97.7891 9.86719V18H94.6719V9.84375C94.6719 9.26562 94.5859 8.80859 94.4141 8.47266C94.25 8.13672 94.0078 7.89844 93.6875 7.75781C93.375 7.61719 92.9883 7.54688 92.5273 7.54688C92.0508 7.54688 91.6328 7.64453 91.2734 7.83984C90.9219 8.02734 90.625 8.28906 90.3828 8.625C90.1484 8.96094 89.9688 9.34766 89.8438 9.78516C89.7188 10.2227 89.6562 10.6953 89.6562 11.2031ZM108.125 15.3047V0H111.242V18H108.43L108.125 15.3047ZM99.9805 11.8125V11.5664C99.9805 10.5977 100.09 9.71875 100.309 8.92969C100.535 8.13281 100.863 7.44922 101.293 6.87891C101.723 6.30859 102.242 5.86719 102.852 5.55469C103.469 5.24219 104.168 5.08594 104.949 5.08594C105.707 5.08594 106.367 5.23828 106.93 5.54297C107.5 5.84766 107.984 6.28125 108.383 6.84375C108.789 7.40625 109.113 8.07422 109.355 8.84766C109.598 9.61328 109.773 10.457 109.883 11.3789V12.0469C109.773 12.9453 109.598 13.7695 109.355 14.5195C109.113 15.2695 108.789 15.9258 108.383 16.4883C107.984 17.043 107.5 17.4727 106.93 17.7773C106.359 18.082 105.691 18.2344 104.926 18.2344C104.152 18.2344 103.457 18.0742 102.84 17.7539C102.23 17.4336 101.711 16.9844 101.281 16.4062C100.859 15.8281 100.535 15.1484 100.309 14.3672C100.09 13.5859 99.9805 12.7344 99.9805 11.8125ZM103.086 11.5664V11.8125C103.086 12.3594 103.133 12.8711 103.227 13.3477C103.32 13.8242 103.473 14.2461 103.684 14.6133C103.895 14.9727 104.164 15.2539 104.492 15.457C104.828 15.6602 105.234 15.7617 105.711 15.7617C106.32 15.7617 106.82 15.6289 107.211 15.3633C107.609 15.0898 107.918 14.7188 108.137 14.25C108.355 13.7734 108.496 13.2383 108.559 12.6445V10.8047C108.527 10.3359 108.445 9.90234 108.312 9.50391C108.188 9.10547 108.008 8.76172 107.773 8.47266C107.547 8.18359 107.266 7.95703 106.93 7.79297C106.594 7.62891 106.195 7.54688 105.734 7.54688C105.258 7.54688 104.852 7.65234 104.516 7.86328C104.18 8.06641 103.906 8.35156 103.695 8.71875C103.484 9.08594 103.328 9.51172 103.227 9.99609C103.133 10.4805 103.086 11.0039 103.086 11.5664ZM121.59 14.9883V5.32031H124.707V18H121.777L121.59 14.9883ZM121.988 12.3633L122.949 12.3398C122.949 13.1914 122.855 13.9766 122.668 14.6953C122.48 15.4141 122.188 16.0391 121.789 16.5703C121.398 17.0938 120.902 17.5039 120.301 17.8008C119.699 18.0898 118.988 18.2344 118.168 18.2344C117.543 18.2344 116.973 18.1484 116.457 17.9766C115.941 17.7969 115.496 17.5195 115.121 17.1445C114.754 16.7617 114.469 16.2734 114.266 15.6797C114.062 15.0781 113.961 14.3555 113.961 13.5117V5.32031H117.055V13.5352C117.055 13.957 117.102 14.3086 117.195 14.5898C117.297 14.8711 117.434 15.1016 117.605 15.2812C117.785 15.4531 117.992 15.5781 118.227 15.6562C118.469 15.7266 118.727 15.7617 119 15.7617C119.75 15.7617 120.34 15.6133 120.77 15.3164C121.207 15.0117 121.52 14.6055 121.707 14.0977C121.895 13.582 121.988 13.0039 121.988 12.3633ZM130.484 8.02734V18H127.391V5.32031H130.297L130.484 8.02734ZM129.992 11.2031H129.078C129.086 10.2812 129.211 9.44531 129.453 8.69531C129.695 7.94531 130.035 7.30078 130.473 6.76172C130.918 6.22266 131.445 5.80859 132.055 5.51953C132.664 5.23047 133.344 5.08594 134.094 5.08594C134.703 5.08594 135.254 5.17187 135.746 5.34375C136.238 5.51563 136.66 5.78906 137.012 6.16406C137.371 6.53906 137.645 7.03125 137.832 7.64062C138.027 8.24219 138.125 8.98438 138.125 9.86719V18H135.008V9.84375C135.008 9.26562 134.922 8.80859 134.75 8.47266C134.586 8.13672 134.344 7.89844 134.023 7.75781C133.711 7.61719 133.324 7.54688 132.863 7.54688C132.387 7.54688 131.969 7.64453 131.609 7.83984C131.258 8.02734 130.961 8.28906 130.719 8.625C130.484 8.96094 130.305 9.34766 130.18 9.78516C130.055 10.2227 129.992 10.6953 129.992 11.2031ZM148.918 5.32031H151.73V17.6133C151.73 18.7617 151.48 19.7344 150.98 20.5312C150.488 21.3359 149.797 21.9453 148.906 22.3594C148.016 22.7812 146.98 22.9922 145.801 22.9922C145.293 22.9922 144.742 22.9219 144.148 22.7812C143.562 22.6406 142.996 22.418 142.449 22.1133C141.91 21.8164 141.461 21.4297 141.102 20.9531L142.496 19.125C142.918 19.6172 143.395 19.9883 143.926 20.2383C144.457 20.4961 145.031 20.625 145.648 20.625C146.273 20.625 146.805 20.5078 147.242 20.2734C147.688 20.0469 148.027 19.7109 148.262 19.2656C148.504 18.8281 148.625 18.2891 148.625 17.6484V8.21484L148.918 5.32031ZM140.352 11.8125V11.5664C140.352 10.5977 140.469 9.71875 140.703 8.92969C140.938 8.13281 141.273 7.44922 141.711 6.87891C142.156 6.30859 142.691 5.86719 143.316 5.55469C143.949 5.24219 144.66 5.08594 145.449 5.08594C146.285 5.08594 146.988 5.23828 147.559 5.54297C148.137 5.84766 148.613 6.28125 148.988 6.84375C149.371 7.40625 149.668 8.07422 149.879 8.84766C150.098 9.61328 150.266 10.457 150.383 11.3789V12.0469C150.273 12.9453 150.098 13.7695 149.855 14.5195C149.621 15.2695 149.309 15.9258 148.918 16.4883C148.527 17.043 148.043 17.4727 147.465 17.7773C146.887 18.082 146.207 18.2344 145.426 18.2344C144.645 18.2344 143.941 18.0742 143.316 17.7539C142.691 17.4336 142.156 16.9844 141.711 16.4062C141.273 15.8281 140.938 15.1484 140.703 14.3672C140.469 13.5859 140.352 12.7344 140.352 11.8125ZM143.445 11.5664V11.8125C143.445 12.3594 143.5 12.8711 143.609 13.3477C143.719 13.8242 143.887 14.2461 144.113 14.6133C144.34 14.9727 144.625 15.2539 144.969 15.457C145.312 15.6602 145.723 15.7617 146.199 15.7617C146.84 15.7617 147.363 15.6289 147.77 15.3633C148.184 15.0898 148.496 14.7188 148.707 14.25C148.926 13.7734 149.066 13.2383 149.129 12.6445V10.8047C149.09 10.3359 149.004 9.90234 148.871 9.50391C148.746 9.10547 148.57 8.76172 148.344 8.47266C148.117 8.18359 147.828 7.95703 147.477 7.79297C147.125 7.62891 146.707 7.54688 146.223 7.54688C145.754 7.54688 145.344 7.65234 144.992 7.86328C144.641 8.06641 144.352 8.35156 144.125 8.71875C143.898 9.08594 143.727 9.51172 143.609 9.99609C143.5 10.4805 143.445 11.0039 143.445 11.5664ZM167.469 0.9375V18H164.258V0.9375H167.469ZM172.766 0.9375V3.48047H159.02V0.9375H172.766ZM176.949 7.91016V18H173.855V5.32031H176.785L176.949 7.91016ZM180.805 5.23828L180.758 8.12109C180.586 8.08984 180.391 8.06641 180.172 8.05078C179.961 8.03516 179.762 8.02734 179.574 8.02734C179.098 8.02734 178.68 8.09375 178.32 8.22656C177.961 8.35156 177.66 8.53516 177.418 8.77734C177.184 9.01953 177.004 9.31641 176.879 9.66797C176.754 10.0117 176.684 10.4023 176.668 10.8398L176 10.7578C176 9.95312 176.082 9.20703 176.246 8.51953C176.41 7.83203 176.648 7.23047 176.961 6.71484C177.273 6.19922 177.664 5.80078 178.133 5.51953C178.609 5.23047 179.156 5.08594 179.773 5.08594C179.945 5.08594 180.129 5.10156 180.324 5.13281C180.527 5.15625 180.688 5.19141 180.805 5.23828ZM189.09 15.3047V9.45703C189.09 9.02734 189.016 8.65625 188.867 8.34375C188.719 8.03125 188.492 7.78906 188.188 7.61719C187.883 7.44531 187.496 7.35938 187.027 7.35938C186.613 7.35938 186.25 7.42969 185.938 7.57031C185.633 7.71094 185.398 7.91016 185.234 8.16797C185.07 8.41797 184.988 8.70703 184.988 9.03516H181.883C181.883 8.51172 182.008 8.01562 182.258 7.54688C182.508 7.07031 182.863 6.64844 183.324 6.28125C183.793 5.90625 184.352 5.61328 185 5.40234C185.656 5.19141 186.391 5.08594 187.203 5.08594C188.164 5.08594 189.02 5.25 189.77 5.57812C190.527 5.89844 191.121 6.38281 191.551 7.03125C191.988 7.67969 192.207 8.49609 192.207 9.48047V15.0117C192.207 15.6445 192.246 16.1875 192.324 16.6406C192.41 17.0859 192.535 17.4727 192.699 17.8008V18H189.547C189.398 17.6797 189.285 17.2734 189.207 16.7812C189.129 16.2812 189.09 15.7891 189.09 15.3047ZM189.523 10.2773L189.547 12.1172H187.59C187.105 12.1172 186.68 12.168 186.312 12.2695C185.945 12.3633 185.645 12.5039 185.41 12.6914C185.176 12.8711 185 13.0898 184.883 13.3477C184.766 13.5977 184.707 13.8828 184.707 14.2031C184.707 14.5156 184.777 14.7969 184.918 15.0469C185.066 15.2969 185.277 15.4961 185.551 15.6445C185.832 15.7852 186.16 15.8555 186.535 15.8555C187.082 15.8555 187.559 15.7461 187.965 15.5273C188.371 15.3008 188.688 15.0273 188.914 14.707C189.141 14.3867 189.262 14.082 189.277 13.793L190.168 15.1289C190.059 15.4492 189.895 15.7891 189.676 16.1484C189.457 16.5078 189.176 16.8438 188.832 17.1562C188.488 17.4688 188.074 17.7266 187.59 17.9297C187.105 18.1328 186.543 18.2344 185.902 18.2344C185.082 18.2344 184.348 18.0703 183.699 17.7422C183.051 17.4141 182.539 16.9648 182.164 16.3945C181.789 15.8242 181.602 15.1758 181.602 14.4492C181.602 13.7773 181.727 13.1836 181.977 12.668C182.227 12.1523 182.598 11.7188 183.09 11.3672C183.582 11.0078 184.191 10.7383 184.918 10.5586C185.652 10.3711 186.492 10.2773 187.438 10.2773H189.523ZM199.016 15.6562L201.969 5.32031H205.203L200.855 18H198.887L199.016 15.6562ZM196.859 5.32031L199.848 15.6797L199.953 18H197.973L193.613 5.32031H196.859ZM212.363 18.2344C211.402 18.2344 210.539 18.0781 209.773 17.7656C209.008 17.4531 208.355 17.0195 207.816 16.4648C207.285 15.9023 206.875 15.25 206.586 14.5078C206.305 13.7578 206.164 12.9531 206.164 12.0938V11.625C206.164 10.6484 206.305 9.76172 206.586 8.96484C206.867 8.16016 207.266 7.46875 207.781 6.89062C208.297 6.3125 208.914 5.86719 209.633 5.55469C210.352 5.24219 211.145 5.08594 212.012 5.08594C212.91 5.08594 213.703 5.23828 214.391 5.54297C215.078 5.83984 215.652 6.26172 216.113 6.80859C216.574 7.35547 216.922 8.01172 217.156 8.77734C217.391 9.53516 217.508 10.375 217.508 11.2969V12.5977H207.57V10.4648H214.461V10.2305C214.445 9.73828 214.352 9.28906 214.18 8.88281C214.008 8.46875 213.742 8.14062 213.383 7.89844C213.023 7.64844 212.559 7.52344 211.988 7.52344C211.527 7.52344 211.125 7.625 210.781 7.82812C210.445 8.02344 210.164 8.30469 209.938 8.67188C209.719 9.03125 209.555 9.46094 209.445 9.96094C209.336 10.4609 209.281 11.0156 209.281 11.625V12.0938C209.281 12.625 209.352 13.1172 209.492 13.5703C209.641 14.0234 209.855 14.418 210.137 14.7539C210.426 15.082 210.77 15.3398 211.168 15.5273C211.574 15.707 212.035 15.7969 212.551 15.7969C213.199 15.7969 213.785 15.6719 214.309 15.4219C214.84 15.1641 215.301 14.7852 215.691 14.2852L217.25 15.9023C216.984 16.293 216.625 16.668 216.172 17.0273C215.727 17.3867 215.188 17.6797 214.555 17.9062C213.922 18.125 213.191 18.2344 212.363 18.2344ZM222.863 0V18H219.758V0H222.863ZM2.91992 21.4062H12.2188C14.1641 21.4062 15.834 21.6992 17.2285 22.2852C18.623 22.8711 19.6953 23.7383 20.4453 24.8867C21.1953 26.0352 21.5703 27.4473 21.5703 29.123C21.5703 30.4473 21.3359 31.5957 20.8672 32.5684C20.3984 33.541 19.7363 34.3555 18.8809 35.0117C18.0371 35.668 17.041 36.1836 15.8926 36.5586L14.3809 37.332H6.17188L6.13672 33.5176H12.2715C13.2676 33.5176 14.0938 33.3418 14.75 32.9902C15.4062 32.6387 15.8984 32.1523 16.2266 31.5312C16.5664 30.9102 16.7363 30.2012 16.7363 29.4043C16.7363 28.5488 16.5723 27.8105 16.2441 27.1895C15.916 26.5566 15.418 26.0703 14.75 25.7305C14.082 25.3906 13.2383 25.2207 12.2188 25.2207H7.75391V47H2.91992V21.4062ZM17.3691 47L11.4453 35.5391L16.5605 35.5215L22.5547 46.7539V47H17.3691ZM33.998 47.3516C32.5566 47.3516 31.2617 47.1172 30.1133 46.6484C28.9648 46.1797 27.9863 45.5293 27.1777 44.6973C26.3809 43.8535 25.7656 42.875 25.332 41.7617C24.9102 40.6367 24.6992 39.4297 24.6992 38.1406V37.4375C24.6992 35.9727 24.9102 34.6426 25.332 33.4473C25.7539 32.2402 26.3516 31.2031 27.125 30.3359C27.8984 29.4688 28.8242 28.8008 29.9023 28.332C30.9805 27.8633 32.1699 27.6289 33.4707 27.6289C34.8184 27.6289 36.0078 27.8574 37.0391 28.3145C38.0703 28.7598 38.9316 29.3926 39.623 30.2129C40.3145 31.0332 40.8359 32.0176 41.1875 33.166C41.5391 34.3027 41.7148 35.5625 41.7148 36.9453V38.8965H26.8086V35.6973H37.1445V35.3457C37.1211 34.6074 36.9805 33.9336 36.7227 33.3242C36.4648 32.7031 36.0664 32.2109 35.5273 31.8477C34.9883 31.4727 34.291 31.2852 33.4355 31.2852C32.7441 31.2852 32.1406 31.4375 31.625 31.7422C31.1211 32.0352 30.6992 32.457 30.3594 33.0078C30.0312 33.5469 29.7852 34.1914 29.6211 34.9414C29.457 35.6914 29.375 36.5234 29.375 37.4375V38.1406C29.375 38.9375 29.4805 39.6758 29.6914 40.3555C29.9141 41.0352 30.2363 41.627 30.6582 42.1309C31.0918 42.623 31.6074 43.0098 32.2051 43.291C32.8145 43.5605 33.5059 43.6953 34.2793 43.6953C35.252 43.6953 36.1309 43.5078 36.916 43.1328C37.7129 42.7461 38.4043 42.1777 38.9902 41.4277L41.3281 43.8535C40.9297 44.4395 40.3906 45.002 39.7109 45.541C39.043 46.0801 38.2344 46.5195 37.2852 46.8594C36.3359 47.1875 35.2402 47.3516 33.998 47.3516ZM52.6309 43.6953C53.2871 43.6953 53.873 43.5664 54.3887 43.3086C54.9043 43.0508 55.3145 42.6875 55.6191 42.2188C55.9355 41.75 56.1055 41.2051 56.1289 40.584H60.5059C60.4824 41.873 60.1191 43.0273 59.416 44.0469C58.7129 45.0664 57.7754 45.875 56.6035 46.4727C55.4434 47.0586 54.1426 47.3516 52.7012 47.3516C51.2363 47.3516 49.959 47.1055 48.8691 46.6133C47.7793 46.1211 46.8711 45.4355 46.1445 44.5566C45.4297 43.6777 44.8906 42.6582 44.5273 41.498C44.1758 40.3379 44 39.0957 44 37.7715V37.209C44 35.8848 44.1758 34.6426 44.5273 33.4824C44.8906 32.3223 45.4297 31.3027 46.1445 30.4238C46.8711 29.5449 47.7793 28.8594 48.8691 28.3672C49.959 27.875 51.2305 27.6289 52.6836 27.6289C54.2188 27.6289 55.5664 27.9277 56.7266 28.5254C57.8984 29.123 58.8125 29.9668 59.4688 31.0566C60.1367 32.1465 60.4824 33.4297 60.5059 34.9062H56.1289C56.1055 34.2266 55.9531 33.6172 55.6719 33.0781C55.3906 32.5391 54.9922 32.1055 54.4766 31.7773C53.9609 31.4492 53.334 31.2852 52.5957 31.2852C51.8105 31.2852 51.1543 31.4492 50.627 31.7773C50.1113 32.1055 49.707 32.5566 49.4141 33.1309C49.1328 33.6934 48.9336 34.3262 48.8164 35.0293C48.7109 35.7207 48.6582 36.4473 48.6582 37.209V37.7715C48.6582 38.5449 48.7109 39.2832 48.8164 39.9863C48.9336 40.6895 49.1328 41.3223 49.4141 41.8848C49.707 42.4355 50.1113 42.875 50.627 43.2031C51.1543 43.5312 51.8223 43.6953 52.6309 43.6953ZM62.7734 37.6836V37.3145C62.7734 35.9199 62.9727 34.6367 63.3711 33.4648C63.7695 32.2812 64.3496 31.2559 65.1113 30.3887C65.873 29.5215 66.8047 28.8477 67.9062 28.3672C69.0078 27.875 70.2617 27.6289 71.668 27.6289C73.0977 27.6289 74.3633 27.875 75.4648 28.3672C76.5781 28.8477 77.5156 29.5215 78.2773 30.3887C79.0391 31.2559 79.6191 32.2812 80.0176 33.4648C80.416 34.6367 80.6152 35.9199 80.6152 37.3145V37.6836C80.6152 39.0664 80.416 40.3496 80.0176 41.5332C79.6191 42.7051 79.0391 43.7305 78.2773 44.6094C77.5156 45.4766 76.584 46.1504 75.4824 46.6309C74.3809 47.1113 73.1211 47.3516 71.7031 47.3516C70.2969 47.3516 69.0371 47.1113 67.9238 46.6309C66.8105 46.1504 65.873 45.4766 65.1113 44.6094C64.3496 43.7305 63.7695 42.7051 63.3711 41.5332C62.9727 40.3496 62.7734 39.0664 62.7734 37.6836ZM67.4141 37.3145V37.6836C67.4141 38.5156 67.4961 39.2949 67.6602 40.0215C67.8242 40.748 68.0762 41.3867 68.416 41.9375C68.7559 42.4883 69.1953 42.9219 69.7344 43.2383C70.2852 43.543 70.9414 43.6953 71.7031 43.6953C72.4531 43.6953 73.0977 43.543 73.6367 43.2383C74.1758 42.9219 74.6152 42.4883 74.9551 41.9375C75.3066 41.3867 75.5645 40.748 75.7285 40.0215C75.8926 39.2949 75.9746 38.5156 75.9746 37.6836V37.3145C75.9746 36.4941 75.8926 35.7266 75.7285 35.0117C75.5645 34.2852 75.3066 33.6465 74.9551 33.0957C74.6152 32.5332 74.1699 32.0938 73.6191 31.7773C73.0801 31.4492 72.4297 31.2852 71.668 31.2852C70.918 31.2852 70.2734 31.4492 69.7344 31.7773C69.1953 32.0938 68.7559 32.5332 68.416 33.0957C68.0762 33.6465 67.8242 34.2852 67.6602 35.0117C67.4961 35.7266 67.4141 36.4941 67.4141 37.3145ZM88.6133 31.8828V47H83.9727V27.9805H88.3496L88.6133 31.8828ZM87.9277 36.8047H86.5039C86.5039 35.4805 86.6621 34.2617 86.9785 33.1484C87.3066 32.0352 87.7871 31.0684 88.4199 30.248C89.0527 29.416 89.832 28.7715 90.7578 28.3145C91.6953 27.8574 92.7793 27.6289 94.0098 27.6289C94.8652 27.6289 95.6504 27.7578 96.3652 28.0156C97.0801 28.2617 97.6953 28.6543 98.2109 29.1934C98.7383 29.7207 99.1426 30.4121 99.4238 31.2676C99.7051 32.1113 99.8457 33.125 99.8457 34.3086V47H95.2051V34.7832C95.2051 33.8926 95.0762 33.1953 94.8184 32.6914C94.5723 32.1875 94.2148 31.8359 93.7461 31.6367C93.2773 31.4258 92.7148 31.3203 92.0586 31.3203C91.332 31.3203 90.7051 31.4668 90.1777 31.7598C89.6621 32.041 89.2344 32.4336 88.8945 32.9375C88.5664 33.4414 88.3203 34.0215 88.1562 34.6777C88.0039 35.334 87.9277 36.043 87.9277 36.8047ZM99.4941 35.9434L97.5781 36.2949C97.5898 35.0996 97.7539 33.9805 98.0703 32.9375C98.3867 31.8828 98.8496 30.9629 99.459 30.1777C100.08 29.3809 100.848 28.7598 101.762 28.3145C102.688 27.8574 103.754 27.6289 104.961 27.6289C105.898 27.6289 106.742 27.7637 107.492 28.0332C108.254 28.291 108.904 28.707 109.443 29.2812C109.982 29.8438 110.393 30.5762 110.674 31.4785C110.967 32.3809 111.113 33.4824 111.113 34.7832V47H106.438V34.7656C106.438 33.8398 106.309 33.1309 106.051 32.6387C105.805 32.1465 105.447 31.8066 104.979 31.6191C104.51 31.4199 103.959 31.3203 103.326 31.3203C102.682 31.3203 102.119 31.4434 101.639 31.6895C101.17 31.9238 100.771 32.252 100.443 32.6738C100.127 33.0957 99.8867 33.5879 99.7227 34.1504C99.5703 34.7012 99.4941 35.2988 99.4941 35.9434ZM119.902 31.8828V47H115.262V27.9805H119.639L119.902 31.8828ZM119.217 36.8047H117.793C117.793 35.4805 117.951 34.2617 118.268 33.1484C118.596 32.0352 119.076 31.0684 119.709 30.248C120.342 29.416 121.121 28.7715 122.047 28.3145C122.984 27.8574 124.068 27.6289 125.299 27.6289C126.154 27.6289 126.939 27.7578 127.654 28.0156C128.369 28.2617 128.984 28.6543 129.5 29.1934C130.027 29.7207 130.432 30.4121 130.713 31.2676C130.994 32.1113 131.135 33.125 131.135 34.3086V47H126.494V34.7832C126.494 33.8926 126.365 33.1953 126.107 32.6914C125.861 32.1875 125.504 31.8359 125.035 31.6367C124.566 31.4258 124.004 31.3203 123.348 31.3203C122.621 31.3203 121.994 31.4668 121.467 31.7598C120.951 32.041 120.523 32.4336 120.184 32.9375C119.855 33.4414 119.609 34.0215 119.445 34.6777C119.293 35.334 119.217 36.043 119.217 36.8047ZM130.783 35.9434L128.867 36.2949C128.879 35.0996 129.043 33.9805 129.359 32.9375C129.676 31.8828 130.139 30.9629 130.748 30.1777C131.369 29.3809 132.137 28.7598 133.051 28.3145C133.977 27.8574 135.043 27.6289 136.25 27.6289C137.188 27.6289 138.031 27.7637 138.781 28.0332C139.543 28.291 140.193 28.707 140.732 29.2812C141.271 29.8438 141.682 30.5762 141.963 31.4785C142.256 32.3809 142.402 33.4824 142.402 34.7832V47H137.727V34.7656C137.727 33.8398 137.598 33.1309 137.34 32.6387C137.094 32.1465 136.736 31.8066 136.268 31.6191C135.799 31.4199 135.248 31.3203 134.615 31.3203C133.971 31.3203 133.408 31.4434 132.928 31.6895C132.459 31.9238 132.061 32.252 131.732 32.6738C131.416 33.0957 131.176 33.5879 131.012 34.1504C130.859 34.7012 130.783 35.2988 130.783 35.9434ZM155.111 47.3516C153.67 47.3516 152.375 47.1172 151.227 46.6484C150.078 46.1797 149.1 45.5293 148.291 44.6973C147.494 43.8535 146.879 42.875 146.445 41.7617C146.023 40.6367 145.812 39.4297 145.812 38.1406V37.4375C145.812 35.9727 146.023 34.6426 146.445 33.4473C146.867 32.2402 147.465 31.2031 148.238 30.3359C149.012 29.4688 149.938 28.8008 151.016 28.332C152.094 27.8633 153.283 27.6289 154.584 27.6289C155.932 27.6289 157.121 27.8574 158.152 28.3145C159.184 28.7598 160.045 29.3926 160.736 30.2129C161.428 31.0332 161.949 32.0176 162.301 33.166C162.652 34.3027 162.828 35.5625 162.828 36.9453V38.8965H147.922V35.6973H158.258V35.3457C158.234 34.6074 158.094 33.9336 157.836 33.3242C157.578 32.7031 157.18 32.2109 156.641 31.8477C156.102 31.4727 155.404 31.2852 154.549 31.2852C153.857 31.2852 153.254 31.4375 152.738 31.7422C152.234 32.0352 151.812 32.457 151.473 33.0078C151.145 33.5469 150.898 34.1914 150.734 34.9414C150.57 35.6914 150.488 36.5234 150.488 37.4375V38.1406C150.488 38.9375 150.594 39.6758 150.805 40.3555C151.027 41.0352 151.35 41.627 151.771 42.1309C152.205 42.623 152.721 43.0098 153.318 43.291C153.928 43.5605 154.619 43.6953 155.393 43.6953C156.365 43.6953 157.244 43.5078 158.029 43.1328C158.826 42.7461 159.518 42.1777 160.104 41.4277L162.441 43.8535C162.043 44.4395 161.504 45.002 160.824 45.541C160.156 46.0801 159.348 46.5195 158.398 46.8594C157.449 47.1875 156.354 47.3516 155.111 47.3516ZM170.492 32.041V47H165.852V27.9805H170.211L170.492 32.041ZM169.754 36.8047H168.383C168.395 35.4219 168.582 34.168 168.945 33.043C169.309 31.918 169.818 30.9512 170.475 30.1426C171.143 29.334 171.934 28.7129 172.848 28.2793C173.762 27.8457 174.781 27.6289 175.906 27.6289C176.82 27.6289 177.646 27.7578 178.385 28.0156C179.123 28.2734 179.756 28.6836 180.283 29.2461C180.822 29.8086 181.232 30.5469 181.514 31.4609C181.807 32.3633 181.953 33.4766 181.953 34.8008V47H177.277V34.7656C177.277 33.8984 177.148 33.2129 176.891 32.709C176.645 32.2051 176.281 31.8477 175.801 31.6367C175.332 31.4258 174.752 31.3203 174.061 31.3203C173.346 31.3203 172.719 31.4668 172.18 31.7598C171.652 32.041 171.207 32.4336 170.844 32.9375C170.492 33.4414 170.223 34.0215 170.035 34.6777C169.848 35.334 169.754 36.043 169.754 36.8047ZM197.457 42.957V20H202.133V47H197.914L197.457 42.957ZM185.24 37.7188V37.3496C185.24 35.8965 185.404 34.5781 185.732 33.3945C186.072 32.1992 186.564 31.1738 187.209 30.3184C187.854 29.4629 188.633 28.8008 189.547 28.332C190.473 27.8633 191.521 27.6289 192.693 27.6289C193.83 27.6289 194.82 27.8574 195.664 28.3145C196.52 28.7715 197.246 29.4219 197.844 30.2656C198.453 31.1094 198.939 32.1113 199.303 33.2715C199.666 34.4199 199.93 35.6855 200.094 37.0684V38.0703C199.93 39.418 199.666 40.6543 199.303 41.7793C198.939 42.9043 198.453 43.8887 197.844 44.7324C197.246 45.5645 196.52 46.209 195.664 46.666C194.809 47.123 193.807 47.3516 192.658 47.3516C191.498 47.3516 190.455 47.1113 189.529 46.6309C188.615 46.1504 187.836 45.4766 187.191 44.6094C186.559 43.7422 186.072 42.7227 185.732 41.5508C185.404 40.3789 185.24 39.1016 185.24 37.7188ZM189.898 37.3496V37.7188C189.898 38.5391 189.969 39.3066 190.109 40.0215C190.25 40.7363 190.479 41.3691 190.795 41.9199C191.111 42.459 191.516 42.8809 192.008 43.1855C192.512 43.4902 193.121 43.6426 193.836 43.6426C194.75 43.6426 195.5 43.4434 196.086 43.0449C196.684 42.6348 197.146 42.0781 197.475 41.375C197.803 40.6602 198.014 39.8574 198.107 38.9668V36.207C198.061 35.5039 197.938 34.8535 197.738 34.2559C197.551 33.6582 197.281 33.1426 196.93 32.709C196.59 32.2754 196.168 31.9355 195.664 31.6895C195.16 31.4434 194.562 31.3203 193.871 31.3203C193.156 31.3203 192.547 31.4785 192.043 31.7949C191.539 32.0996 191.129 32.5273 190.812 33.0781C190.496 33.6289 190.262 34.2676 190.109 34.9941C189.969 35.7207 189.898 36.5059 189.898 37.3496ZM216.811 42.957V34.1855C216.811 33.541 216.699 32.9844 216.477 32.5156C216.254 32.0469 215.914 31.6836 215.457 31.4258C215 31.168 214.42 31.0391 213.717 31.0391C213.096 31.0391 212.551 31.1445 212.082 31.3555C211.625 31.5664 211.273 31.8652 211.027 32.252C210.781 32.627 210.658 33.0605 210.658 33.5527H206C206 32.7676 206.188 32.0234 206.562 31.3203C206.938 30.6055 207.471 29.9727 208.162 29.4219C208.865 28.8594 209.703 28.4199 210.676 28.1035C211.66 27.7871 212.762 27.6289 213.98 27.6289C215.422 27.6289 216.705 27.875 217.83 28.3672C218.967 28.8477 219.857 29.5742 220.502 30.5469C221.158 31.5195 221.486 32.7441 221.486 34.2207V42.5176C221.486 43.4668 221.545 44.2812 221.662 44.9609C221.791 45.6289 221.979 46.209 222.225 46.7012V47H217.496C217.273 46.5195 217.104 45.9102 216.986 45.1719C216.869 44.4219 216.811 43.6836 216.811 42.957ZM217.461 35.416L217.496 38.1758H214.561C213.834 38.1758 213.195 38.252 212.645 38.4043C212.094 38.5449 211.643 38.7559 211.291 39.0371C210.939 39.3066 210.676 39.6348 210.5 40.0215C210.324 40.3965 210.236 40.8242 210.236 41.3047C210.236 41.7734 210.342 42.1953 210.553 42.5703C210.775 42.9453 211.092 43.2441 211.502 43.4668C211.924 43.6777 212.416 43.7832 212.979 43.7832C213.799 43.7832 214.514 43.6191 215.123 43.291C215.732 42.9512 216.207 42.541 216.547 42.0605C216.887 41.5801 217.068 41.123 217.092 40.6895L218.428 42.6934C218.264 43.1738 218.018 43.6836 217.689 44.2227C217.361 44.7617 216.939 45.2656 216.424 45.7344C215.908 46.2031 215.287 46.5898 214.561 46.8945C213.834 47.1992 212.99 47.3516 212.029 47.3516C210.799 47.3516 209.697 47.1055 208.725 46.6133C207.752 46.1211 206.984 45.4473 206.422 44.5918C205.859 43.7363 205.578 42.7637 205.578 41.6738C205.578 40.666 205.766 39.7754 206.141 39.002C206.516 38.2285 207.072 37.5781 207.811 37.0508C208.549 36.5117 209.463 36.1074 210.553 35.8379C211.654 35.5566 212.914 35.416 214.332 35.416H217.461ZM234.67 27.9805V31.3203H223.771V27.9805H234.67ZM226.689 23.3047H231.348V41.5156C231.348 42.0781 231.424 42.5117 231.576 42.8164C231.729 43.1211 231.957 43.3262 232.262 43.4316C232.566 43.5371 232.93 43.5898 233.352 43.5898C233.656 43.5898 233.938 43.5723 234.195 43.5371C234.453 43.502 234.67 43.4668 234.846 43.4316L234.863 46.9121C234.477 47.041 234.037 47.1465 233.545 47.2285C233.064 47.3105 232.52 47.3516 231.91 47.3516C230.867 47.3516 229.953 47.1758 229.168 46.8242C228.383 46.4609 227.773 45.8809 227.34 45.084C226.906 44.2754 226.689 43.209 226.689 41.8848V23.3047ZM242.686 27.9805V47H238.027V27.9805H242.686ZM237.711 23.0059C237.711 22.3145 237.945 21.7402 238.414 21.2832C238.895 20.8262 239.539 20.5977 240.348 20.5977C241.156 20.5977 241.795 20.8262 242.264 21.2832C242.744 21.7402 242.984 22.3145 242.984 23.0059C242.984 23.6855 242.744 24.2539 242.264 24.7109C241.795 25.168 241.156 25.3965 240.348 25.3965C239.539 25.3965 238.895 25.168 238.414 24.7109C237.945 24.2539 237.711 23.6855 237.711 23.0059ZM246.289 37.6836V37.3145C246.289 35.9199 246.488 34.6367 246.887 33.4648C247.285 32.2812 247.865 31.2559 248.627 30.3887C249.389 29.5215 250.32 28.8477 251.422 28.3672C252.523 27.875 253.777 27.6289 255.184 27.6289C256.613 27.6289 257.879 27.875 258.98 28.3672C260.094 28.8477 261.031 29.5215 261.793 30.3887C262.555 31.2559 263.135 32.2812 263.533 33.4648C263.932 34.6367 264.131 35.9199 264.131 37.3145V37.6836C264.131 39.0664 263.932 40.3496 263.533 41.5332C263.135 42.7051 262.555 43.7305 261.793 44.6094C261.031 45.4766 260.1 46.1504 258.998 46.6309C257.896 47.1113 256.637 47.3516 255.219 47.3516C253.812 47.3516 252.553 47.1113 251.439 46.6309C250.326 46.1504 249.389 45.4766 248.627 44.6094C247.865 43.7305 247.285 42.7051 246.887 41.5332C246.488 40.3496 246.289 39.0664 246.289 37.6836ZM250.93 37.3145V37.6836C250.93 38.5156 251.012 39.2949 251.176 40.0215C251.34 40.748 251.592 41.3867 251.932 41.9375C252.271 42.4883 252.711 42.9219 253.25 43.2383C253.801 43.543 254.457 43.6953 255.219 43.6953C255.969 43.6953 256.613 43.543 257.152 43.2383C257.691 42.9219 258.131 42.4883 258.471 41.9375C258.822 41.3867 259.08 40.748 259.244 40.0215C259.408 39.2949 259.49 38.5156 259.49 37.6836V37.3145C259.49 36.4941 259.408 35.7266 259.244 35.0117C259.08 34.2852 258.822 33.6465 258.471 33.0957C258.131 32.5332 257.686 32.0938 257.135 31.7773C256.596 31.4492 255.945 31.2852 255.184 31.2852C254.434 31.2852 253.789 31.4492 253.25 31.7773C252.711 32.0938 252.271 32.5332 251.932 33.0957C251.592 33.6465 251.34 34.2852 251.176 35.0117C251.012 35.7266 250.93 36.4941 250.93 37.3145ZM272.059 32.041V47H267.418V27.9805H271.777L272.059 32.041ZM271.32 36.8047H269.949C269.961 35.4219 270.148 34.168 270.512 33.043C270.875 31.918 271.385 30.9512 272.041 30.1426C272.709 29.334 273.5 28.7129 274.414 28.2793C275.328 27.8457 276.348 27.6289 277.473 27.6289C278.387 27.6289 279.213 27.7578 279.951 28.0156C280.689 28.2734 281.322 28.6836 281.85 29.2461C282.389 29.8086 282.799 30.5469 283.08 31.4609C283.373 32.3633 283.52 33.4766 283.52 34.8008V47H278.844V34.7656C278.844 33.8984 278.715 33.2129 278.457 32.709C278.211 32.2051 277.848 31.8477 277.367 31.6367C276.898 31.4258 276.318 31.3203 275.627 31.3203C274.912 31.3203 274.285 31.4668 273.746 31.7598C273.219 32.041 272.773 32.4336 272.41 32.9375C272.059 33.4414 271.789 34.0215 271.602 34.6777C271.414 35.334 271.32 36.043 271.32 36.8047Z" fill="white"/>
</svg>
