<svg width="194" height="277" viewBox="0 0 194 277" fill="none" xmlns="http://www.w3.org/2000/svg">
<path d="M35.5714 238.633L40.4806 240.125L73.4233 137.87C72.0762 137.537 70.6489 137.717 69.4346 138.375C68.2204 139.032 67.3115 140.116 66.8946 141.404L35.5714 238.633Z" fill="#3F3D56"/>
<path d="M143.84 105.247H122.123V43.2395H143.84C147.995 43.2441 151.979 44.8494 154.916 47.7032C157.854 50.557 159.507 54.4264 159.512 58.4623V90.0238C159.507 94.0598 157.854 97.9291 154.916 100.783C151.979 103.637 147.995 105.242 143.84 105.247Z" fill="#2F2E41"/>
<path d="M140.817 72.0285C140.092 72.0278 139.397 71.7476 138.884 71.2494C138.371 70.7512 138.082 70.0757 138.082 69.3711V46.3399H143.553V69.3711C143.552 70.0757 143.264 70.7512 142.751 71.2494C142.238 71.7476 141.543 72.0278 140.817 72.0285Z" fill="#3F3D56"/>
<path d="M147.395 100.375H131.504C130.589 100.374 129.711 100.02 129.063 99.3909C128.416 98.7619 128.052 97.9091 128.051 97.0196V87.7851C128.052 86.8956 128.416 86.0429 129.063 85.4139C129.711 84.7849 130.589 84.4311 131.504 84.43H147.395C148.31 84.4311 149.188 84.7849 149.836 85.4139C150.483 86.0429 150.848 86.8956 150.849 87.7851V97.0196C150.848 97.9091 150.483 98.7619 149.836 99.3909C149.188 100.02 148.31 100.374 147.395 100.375Z" fill="#3F3D56"/>
<path d="M101.062 36.7878C100.689 36.788 100.327 36.6625 100.038 36.4328C99.8587 36.2911 99.7118 36.1151 99.6062 35.9156C99.5006 35.7161 99.4386 35.4976 99.424 35.2738C98.9115 27.3275 100.333 19.3756 103.572 12.0619C105.767 7.12486 108.293 3.94375 111.519 2.05038C115.824 -0.475161 121.731 -0.676947 127.725 1.49695C131.15 2.73926 133.621 4.36312 135.277 6.4611C137.488 9.26038 138.181 12.8518 138.601 16.3158C139.234 21.5567 139.383 26.8423 139.045 32.109C139.03 32.3812 138.941 32.6445 138.786 32.8721C138.632 33.0997 138.418 33.2834 138.167 33.4044C137.895 33.5335 137.593 33.5912 137.291 33.5719C136.989 33.5526 136.698 33.4569 136.445 33.2943C136.344 33.2296 136.239 33.17 136.131 33.1157C135.585 32.8498 134.982 32.7149 134.371 32.7224C133.76 32.7299 133.16 32.8796 132.621 33.1589C132.226 33.3864 131.851 33.6472 131.503 33.9383L129.348 35.633C129.082 35.8381 128.758 35.9591 128.419 35.98C128.08 36.0008 127.743 35.9204 127.452 35.7496C125.889 34.8869 124.143 34.3859 122.348 34.2855C119.965 34.1993 117.58 34.3675 115.235 34.787L101.306 36.7703C101.225 36.7819 101.144 36.7877 101.062 36.7878Z" fill="#2F2E41"/>
<path d="M99.2025 262.456H91.764L88.2254 234.586H99.2039L99.2025 262.456Z" fill="#FFB6B6"/>
<path d="M103.204 276.176H97.9261L96.9839 271.335L94.571 276.176H80.5718C79.9007 276.176 79.2473 275.967 78.7068 275.581C78.1662 275.195 77.767 274.651 77.5673 274.029C77.3676 273.406 77.3779 272.738 77.5967 272.122C77.8156 271.506 78.2314 270.974 78.7836 270.603L89.9629 263.104V258.21L101.722 258.892L103.204 276.176Z" fill="#2F2E41"/>
<path d="M184.808 256.275L177.951 259.075L163.567 234.716L173.688 230.583L184.808 256.275Z" fill="#FFB6B6"/>
<path d="M193.971 267.415L189.105 269.403L186.305 265.295L186.013 270.666L173.108 275.937C172.489 276.189 171.804 276.243 171.151 276.091C170.499 275.938 169.914 275.587 169.481 275.089C169.049 274.59 168.792 273.971 168.748 273.32C168.704 272.67 168.875 272.023 169.236 271.473L176.549 260.351L174.596 255.839L185.707 252.041L193.971 267.415Z" fill="#2F2E41"/>
<path d="M95.7268 72.6436L93.5951 100.384L79.4578 141.811L73.78 138.605L81.4829 96.4734L84.0988 72.168L95.7268 72.6436Z" fill="#FFB6B6"/>
<path d="M76.1604 147.853C79.4465 147.853 82.1104 145.265 82.1104 142.073C82.1104 138.881 79.4465 136.293 76.1604 136.293C72.8743 136.293 70.2103 138.881 70.2103 142.073C70.2103 145.265 72.8743 147.853 76.1604 147.853Z" fill="#FFB6B6"/>
<path d="M132.003 104.593V112.245C132.003 112.245 144.196 133.117 139.231 142.073L157.536 190.715C157.536 190.715 182.361 214.829 180.233 232.053L181.652 237.565L165.338 244.455L161.792 239.632L134.13 193.47L110.724 151.443L106.469 201.049C106.469 201.049 109.306 239.632 101.504 243.766L100.795 249.966H84.2385V244.072C84.2385 244.072 78.098 223.096 81.6443 207.25L80.2258 140.42C80.2258 140.42 86.6092 112.172 94.4112 107.349L97.2483 100.459L132.003 104.593Z" fill="#2F2E41"/>
<path d="M145.03 51.5527L129.57 44.5211L125.107 36.9669L110.101 37.7934L105.56 44.9936L92.2036 47.6223L94.1665 94.5166C93.2921 95.9871 92.9804 97.7105 93.2865 99.3825C93.7551 102.322 96.1351 100.01 93.7551 102.322C91.3751 104.633 89.5811 103.472 90.7756 105.497C91.9701 107.523 89.0323 110.682 89.0323 110.682C89.0323 110.682 127.028 129.48 137.762 105.497C137.762 105.497 139.878 98.4823 136.303 83.7851C132.728 69.088 145.03 51.5527 145.03 51.5527Z" fill="#E4E4E4"/>
<path d="M96.5934 50.6086L92.2037 47.6222C92.2037 47.6222 86.1321 50.0433 85.9273 54.9418C85.7226 59.8403 82.2326 74.4994 82.2326 74.4994L96.093 81.7374L96.5934 50.6086Z" fill="#E4E4E4"/>
<path d="M148.682 74.9558L146.551 102.695L122.893 137.187L117.216 133.982L134.438 98.7856L137.054 74.4801L148.682 74.9558Z" fill="#FFB6B6"/>
<path d="M137.799 53.1208L145.03 51.5527C145.03 51.5527 149.388 52.9046 149.983 59.2623C150.578 65.62 151.077 76.6853 151.077 76.6853L135.901 87.5262L132.133 71.9778L137.799 53.1208Z" fill="#E4E4E4"/>
<path d="M119.001 143.229C122.287 143.229 124.951 140.642 124.951 137.449C124.951 134.257 122.287 131.67 119.001 131.67C115.714 131.67 113.051 134.257 113.051 137.449C113.051 140.642 115.714 143.229 119.001 143.229Z" fill="#FFB6B6"/>
<path d="M116.248 34.491C123.904 34.491 130.111 28.4617 130.111 21.0241C130.111 13.5866 123.904 7.55725 116.248 7.55725C108.591 7.55725 102.384 13.5866 102.384 21.0241C102.384 28.4617 108.591 34.491 116.248 34.491Z" fill="#FFB7B7"/>
<path d="M104.956 18.994H104.955C103.189 18.9931 101.421 18.9909 99.6501 18.9872C99.4391 18.9862 99.2304 18.9443 99.0363 18.8639C98.8423 18.7835 98.6667 18.6662 98.5199 18.519C98.3755 18.375 98.2626 18.204 98.188 18.0163C98.1135 17.8287 98.0789 17.6284 98.0863 17.4274C98.2169 14.5737 99.0564 11.793 100.533 9.32271C102.01 6.85244 104.08 4.76594 106.567 3.24131C109.182 1.69235 112.165 0.828701 115.226 0.734695C118.288 0.64069 121.321 1.31956 124.032 2.70498C126.742 4.09041 129.036 6.135 130.69 8.63907C132.343 11.1431 133.3 14.021 133.466 16.9917C133.478 17.1923 133.449 17.3932 133.379 17.5827C133.31 17.7722 133.203 17.9464 133.064 18.0953C132.925 18.2442 132.757 18.3647 132.57 18.4499C132.382 18.5351 132.179 18.5832 131.973 18.5915C125.837 18.8436 119.031 18.966 109.905 18.9889H109.901C109.59 18.9898 109.286 18.9004 109.028 18.7322C108.77 18.564 108.57 18.3248 108.454 18.0452L108.307 17.6961C108.23 17.5123 108.094 17.357 107.92 17.2527C107.746 17.1483 107.543 17.1002 107.339 17.1152C107.135 17.1303 106.942 17.2077 106.786 17.3364C106.63 17.4652 106.521 17.6385 106.473 17.8315C106.392 18.163 106.198 18.4582 105.922 18.6691C105.647 18.8801 105.306 18.9946 104.956 18.994Z" fill="#2F2E41"/>
<path d="M135.988 86.9095C132.262 83.5039 130.66 78.5618 130.634 73.6818C130.605 68.108 132.682 62.8141 135.368 57.9678C136.993 55.0369 138.843 52.2322 140.696 49.434C141.319 48.4926 139.774 47.6222 139.154 48.5588C132.888 58.0264 125.987 69.2404 130.028 80.8757C130.956 83.634 132.569 86.1276 134.725 88.1356C135.562 88.8999 136.826 87.6762 135.988 86.9095H135.988Z" fill="#3F3D56"/>
<path d="M35.6665 190.377C32.5964 189.436 29.3153 189.356 26.2005 190.146C26.1932 190.15 26.1878 190.148 26.1808 190.152C23.7668 190.761 21.5163 191.869 19.5829 193.399C19.4706 193.488 19.364 193.577 19.257 193.667C16.8072 195.708 14.9986 198.378 14.0382 201.371L0.792014 242.488C-0.193373 245.531 -0.260703 248.785 0.597993 251.865C0.649901 252.037 0.701915 252.21 0.754037 252.383C1.39699 254.424 2.43181 256.327 3.80382 257.993C3.81241 258.002 3.81931 258.012 3.82417 258.023C5.96585 260.606 8.85017 262.511 12.1101 263.497L37.0923 271.091L60.6488 197.971L35.6665 190.377Z" fill="#FF8700"/>
<path d="M75.0598 138.367L42.8852 238.238C42.784 238.551 42.7473 238.881 42.7773 239.208C42.8073 239.535 42.9033 239.853 43.0598 240.144C43.2164 240.435 43.4304 240.693 43.6897 240.903C43.949 241.114 44.2485 241.273 44.571 241.371C44.8935 241.469 45.2328 241.504 45.5693 241.475C45.9059 241.445 46.2333 241.352 46.5326 241.2C46.832 241.047 47.0975 240.839 47.314 240.587C47.5305 240.335 47.6937 240.044 47.7944 239.731L78.3495 144.886C78.763 143.597 78.6524 142.203 78.0406 140.991C77.4287 139.778 76.3621 138.839 75.0598 138.367Z" fill="#3F3D56"/>
<path d="M34.9322 276.57C37.4762 276.57 39.5385 274.566 39.5385 272.095C39.5385 269.624 37.4762 267.621 34.9322 267.621C32.3882 267.621 30.3258 269.624 30.3258 272.095C30.3258 274.566 32.3882 276.57 34.9322 276.57Z" fill="#3F3D56"/>
<path d="M4.93157 267.45C7.47558 267.45 9.53791 265.446 9.53791 262.975C9.53791 260.504 7.47558 258.501 4.93157 258.501C2.38756 258.501 0.325226 260.504 0.325226 262.975C0.325226 265.446 2.38756 267.45 4.93157 267.45Z" fill="#3F3D56"/>
<path d="M26.2005 190.146C21.4297 204.677 8.93199 242.67 3.82417 258.023C3.81931 258.012 3.81241 258.002 3.80382 257.993C2.43181 256.327 1.39699 254.424 0.754036 252.383C0.702101 252.21 0.650086 252.038 0.597992 251.865C6.07452 235.181 15.2469 207.044 19.257 193.667C19.364 193.577 19.4706 193.487 19.5829 193.399C21.5164 191.869 23.7668 190.761 26.1808 190.152C26.1879 190.148 26.1932 190.15 26.2005 190.146Z" fill="#3F3D56"/>
</svg>
