<svg width="20" height="20" viewBox="0 0 20 20" fill="none" xmlns="http://www.w3.org/2000/svg">
<path d="M9.99286 2.21961C5.57679 2.21782 2 5.79282 2 10.2053C2 13.6946 4.2375 16.6607 7.35357 17.75C7.77321 17.8553 7.70893 17.5571 7.70893 17.3535V15.9696C5.28571 16.2535 5.1875 14.65 5.025 14.3821C4.69643 13.8214 3.91964 13.6785 4.15179 13.4107C4.70357 13.1267 5.26607 13.4821 5.91786 14.4446C6.38929 15.1428 7.30893 15.025 7.775 14.9089C7.87679 14.4893 8.09464 14.1142 8.39464 13.8232C5.88393 13.3732 4.8375 11.841 4.8375 10.0196C4.8375 9.13568 5.12857 8.32318 5.7 7.66782C5.33571 6.58746 5.73393 5.66246 5.7875 5.52496C6.825 5.43211 7.90357 6.26782 7.9875 6.33389C8.57679 6.17496 9.25 6.09103 10.0036 6.09103C10.7607 6.09103 11.4357 6.17853 12.0304 6.33925C12.2321 6.18568 13.2321 5.46782 14.1964 5.55532C14.2482 5.69282 14.6375 6.59639 14.2946 7.66246C14.8732 8.31961 15.1679 9.13925 15.1679 10.025C15.1679 11.85 14.1143 13.3839 11.5964 13.8267C11.8121 14.0388 11.9833 14.2918 12.1001 14.5708C12.217 14.8498 12.277 15.1493 12.2768 15.4517V17.4607C12.2911 17.6214 12.2768 17.7803 12.5446 17.7803C15.7071 16.7142 17.9839 13.7267 17.9839 10.2071C17.9839 5.79282 14.4054 2.21961 9.99286 2.21961Z" fill="#2EA5FF"/>
</svg>
