<svg width="20" height="20" viewBox="0 0 20 20" fill="none" xmlns="http://www.w3.org/2000/svg">
<path d="M5.42862 3.59993C5.42862 4.5709 4.77948 5.40656 3.59914 5.40656C2.48828 5.40656 1.77148 4.61845 1.77148 3.64748C1.77148 2.6509 2.46634 1.77136 3.60005 1.77136C4.73377 1.77136 5.40668 2.60336 5.42862 3.59993ZM1.77148 18.2285V6.34279H5.42862V18.2285H1.77148ZM7.25719 10.4059C7.25719 8.9933 7.21057 7.81296 7.16394 6.79353H10.4499L10.6126 8.36884H10.6821C11.1447 7.62736 12.2784 6.54027 14.1765 6.54027C16.4915 6.54027 18.2286 8.08999 18.2286 11.4244V18.2285H14.5715V11.9556C14.5715 10.4982 14.0165 9.38644 12.7429 9.38644C11.7719 9.38644 11.2855 10.1727 11.0304 10.821C10.9372 11.0532 10.9143 11.3768 10.9143 11.7014V18.2285H7.25719V10.4059Z" fill="#2EA5FF"/>
</svg>
